<?xml version="1.0" encoding="utf-8"?>
<!-- Generator: Adobe Illustrator 27.5.0, SVG Export Plug-In . SVG Version: 6.00 Build 0)  -->
<svg version="1.1" id="Thinking_man" xmlns="http://www.w3.org/2000/svg" xmlns:xlink="http://www.w3.org/1999/xlink" x="0px"
	 y="0px" viewBox="0 0 400 400" style="enable-background:new 0 0 400 400;" xml:space="preserve">
<radialGradient id="Background_00000146465281496667257750000004997754611810771639_" cx="200" cy="200" r="200" gradientUnits="userSpaceOnUse">
	<stop  offset="0" style="stop-color:#F1F2F2"/>
	<stop  offset="0.5041" style="stop-color:#DFE0E1"/>
	<stop  offset="1" style="stop-color:#D1D3D4"/>
</radialGradient>
<rect id="Background" style="fill-rule:evenodd;clip-rule:evenodd;fill:url(#Background_00000146465281496667257750000004997754611810771639_);" width="400" height="400"/>
<polygon id="Shadow" style="opacity:0.44;fill-rule:evenodd;clip-rule:evenodd;fill:#B8B8B8;" points="65.218,332.979 
	337.548,332.496 366.892,379.903 35.36,379.903 "/>
<g id="Man_on_chair">
	<polygon style="fill-rule:evenodd;clip-rule:evenodd;fill:#276C91;" points="174.523,158.684 172.402,219.33 175.082,223.084 
		239.513,221.438 243.144,219.881 236.395,157.026 	"/>
	<path style="fill-rule:evenodd;clip-rule:evenodd;fill:#488DB3;" d="M194.277,125.671c-2.475,1.017-3.686,4.504-6.022,5.387
		c-20.355,7.697-36.297,8.312-39.77,16.511c-1.784,4.212-4.3,12.228-6.889,20.701l-4.753,9.533l-6.576,15.166l3.334,15.008
		l66.672-1.011c23.041,6.055,17.552,4.979,40.253,7.225c5.822-12.445,24.617-21.355,33.518-22.556l-1.457-11.796l-20.808-3.793
		l-3.069-21.401C250.249,133.487,217.866,129.268,194.277,125.671z"/>
	<path style="fill-rule:evenodd;clip-rule:evenodd;fill:#5BADD9;" d="M264.817,178.42c5.181,0.945,7.771,1.417,7.771,1.417
		c-1.14,4.27-0.655,8.202,1.457,11.796c-5.667,2.134-8.5,3.201-8.5,3.201C263.693,188.627,263.451,183.156,264.817,178.42z"/>
	<path style="fill-rule:evenodd;clip-rule:evenodd;fill:#3D82A8;" d="M124.727,205.732c3.402-8.104,12.104-11.27,26.107-9.496
		c9.432,15.124,3.538,27.244-3.395,27.751C134.189,225.264,125.202,217.875,124.727,205.732z"/>
	<g>
		<path style="fill-rule:evenodd;clip-rule:evenodd;fill:#E68054;" d="M286.243,175.722c-2.787-4.913-7.04-5.699-12.786-1.772
			c-1.749,5.854-4.56,4.638-4.734,10.036c-0.325,4.111,0.302,5.883,2.446,7.979c2.857,0.924,3.917,1.783,6.059,2.318
			c5.842,1.457,11.71-0.013,11.71-0.013c10.404-1.745,15.606-2.617,15.606-2.617c0.836-1.488,0.461-2.399-1.123-2.731
			c-5.539-0.152-8.309-0.228-8.309-0.228c4.267-0.835,6.4-1.252,6.4-1.252c2.269-0.719,1.652-2.987,0.511-3.575
			c1.346-0.962,1.041-3.085,0.163-4.163c1.948-1.079,1.079-3.584-0.214-4.063c-7.859,0-11.35,0.65-11.35,0.65
			C287.703,175.912,286.243,175.722,286.243,175.722z"/>
		<path style="fill-rule:evenodd;clip-rule:evenodd;fill:#CCCCCC;" d="M302.408,165.532c-18.589,0.865-9.315,0.975-27.653-0.189
			l1.6-4.54c9.062,0.982,15.785,0.514,24.322,0L302.408,165.532z"/>
		<path style="fill-rule:evenodd;clip-rule:evenodd;fill:#C1A359;" d="M301.328,165.157l-12.607,1.041l-12.754-1.374l4.287,38.471
			c4.573,1.881,10.209,1.523,15.917,0.209L301.328,165.157z"/>
		<path style="fill-rule:evenodd;clip-rule:evenodd;fill:#8C5D3A;" d="M275.864,172.198c7.487,1.538,21.151,0.574,25.288,0.219
			c-2.091,15.519-3.137,23.278-3.137,23.278c-4.054,1.538-12.582,3.271-19.528,0C276.801,178.946,275.864,172.198,275.864,172.198z"
			/>
		<path style="fill-rule:evenodd;clip-rule:evenodd;fill:#FFFFFF;" d="M301.778,163.81c0.103,0.315,0.352,0.613,0.208,0.631
			c-4.7,0.565-8.948,0.868-13.236,0.845c-4.342-0.023-8.726-0.388-13.549-1.132c0.138-0.468,0.156-0.467,0.303-0.936
			c-2.038,0.424-1.513,0.322-1.496,2.449c5.309,1.101,10.064,1.345,14.823,1.374c4.543,0.027,9.091-0.113,14.132-1.022
			C302.977,164.842,303.329,164.065,301.778,163.81z"/>
		<path style="fill-rule:evenodd;clip-rule:evenodd;fill:#FFFFFF;" d="M288.517,160.011c-6.717,0-12.161,0.354-12.161,0.792
			c0,0.437,5.475,1.231,12.192,1.231s12.131-0.794,12.131-1.231C300.678,160.366,295.234,160.011,288.517,160.011z"/>
		<path style="fill-rule:evenodd;clip-rule:evenodd;fill:#CCCCCC;" d="M278.77,160.329l0.734-1.421
			c6.786,1.273,11.805,0.718,18.198,0.052l0.489,1.363C291.319,161.162,284.845,161.164,278.77,160.329z"/>
		<path style="fill-rule:evenodd;clip-rule:evenodd;fill:#FFFFFF;" d="M288.603,159.752c5.012,0,9.099-0.356,9.099-0.792
			s-4.088-0.792-9.099-0.792c-5.012,0-9.099,0.356-9.099,0.792S283.592,159.752,288.603,159.752z"/>
		<path style="fill-rule:evenodd;clip-rule:evenodd;fill:#6B4425;" d="M279.097,173.977c-0.008-0.085-0.083-0.147-0.167-0.139
			c-0.084,0.008-0.145,0.084-0.137,0.169l2.024,20.607c0.008,0.085,0.083,0.147,0.167,0.139c0.084-0.008,0.145-0.084,0.137-0.169
			L279.097,173.977L279.097,173.977z M298.321,174.008c0.008-0.085-0.053-0.161-0.137-0.169c-0.084-0.008-0.159,0.054-0.167,0.139
			l-2.024,20.607c-0.008,0.085,0.053,0.161,0.137,0.169c0.084,0.008,0.158-0.054,0.167-0.139L298.321,174.008L298.321,174.008z
			 M295.084,174.115c0.007-0.085-0.056-0.16-0.14-0.167c-0.084-0.007-0.158,0.056-0.165,0.142
			c-1.099,13.369-1.598,21.483-1.599,21.507c-0.005,0.085,0.059,0.159,0.143,0.164c0.084,0.005,0.157-0.059,0.162-0.145
			C293.486,195.592,293.983,187.508,295.084,174.115L295.084,174.115z M292.049,174.111c0.004-0.085-0.061-0.158-0.145-0.162
			c-0.084-0.004-0.156,0.061-0.16,0.146c-0.742,14.247-1.112,22.018-1.113,22.04c-0.004,0.085,0.061,0.158,0.145,0.162
			c0.084,0.004,0.156-0.062,0.159-0.147C290.937,196.127,291.306,188.368,292.049,174.111L292.049,174.111z M288.71,174.106
			c0.002-0.085-0.065-0.156-0.149-0.158c-0.084-0.002-0.154,0.066-0.155,0.151l-0.506,22.039c-0.002,0.085,0.065,0.156,0.149,0.158
			c0.084,0.002,0.154-0.066,0.155-0.151L288.71,174.106L288.71,174.106z M285.37,174.095c-0.004-0.085-0.076-0.151-0.16-0.146
			c-0.084,0.004-0.149,0.077-0.145,0.162c0.742,14.257,1.112,22.016,1.113,22.039c0.004,0.085,0.075,0.151,0.159,0.147
			c0.084-0.004,0.149-0.077,0.145-0.162C286.483,196.112,286.112,188.341,285.37,174.095L285.37,174.095z M282.335,174.09
			c-0.007-0.085-0.081-0.149-0.165-0.142c-0.084,0.007-0.147,0.082-0.14,0.167c1.101,13.393,1.598,21.477,1.599,21.501
			c0.005,0.085,0.078,0.15,0.162,0.145c0.084-0.005,0.148-0.079,0.143-0.164C283.933,195.573,283.434,187.459,282.335,174.09z"/>
		<path style="fill-rule:evenodd;clip-rule:evenodd;fill:#F29A6A;" d="M275.776,177.259c-0.503-0.494-0.925-0.952-1.266-1.374
			c0.228,1.356,0.713,3.256,1.704,4.037c0.329,4.578-0.636,6.41-2.901,7.315c-2.906-0.097-3.738-2.171-3.575-4.717
			c1.241-1.163,3.798-5.822,3.523-7.956c-0.212-1.649,0.428-2.174,2.603-2.365c2.976,2.337,5.87,4.32,8.681,5.95
			c0.046,2.724-1.303,3.772-4.048,3.145C277.702,179.693,276.128,178.349,275.776,177.259z"/>
		<path style="fill-rule:evenodd;clip-rule:evenodd;fill:#F29A6A;" d="M300.653,179.977c1.405-1.247,1.439-2.364,0.101-3.35
			c-4.254,0.325-6.918,0.416-7.589,1.367c-0.671,0.952-0.52,2.154,0.034,2.53C298.169,180.159,300.653,179.977,300.653,179.977z"/>
		<path style="fill-rule:evenodd;clip-rule:evenodd;fill:#F29A6A;" d="M300.249,184.318c1.405-1.247,1.439-2.364,0.101-3.35
			c-4.254,0.325-6.918,0.416-7.589,1.367c-0.671,0.952-0.521,2.154,0.034,2.53C297.764,184.5,300.249,184.318,300.249,184.318z"/>
		<path style="fill-rule:evenodd;clip-rule:evenodd;fill:#F29A6A;" d="M300.207,187.712c1.218-1.435,1.096-2.546-0.365-3.331
			c-4.166,0.928-6.792,1.398-7.324,2.436c-0.532,1.038-0.216,2.207,0.385,2.5C297.772,188.247,300.207,187.712,300.207,187.712z"/>
		<path style="fill-rule:evenodd;clip-rule:evenodd;fill:#B2954F;" d="M293.973,167.366c2.84-0.161,5.044-0.388,6.61-0.684
			c-0.36,3.054-0.54,4.581-0.54,4.581c-0.319,0.082-0.633,0.144-0.94,0.184c-0.295-1.038-1.174-2.096-2.638-3.174
			c0.638,0.606,1.291,1.683,1.959,3.229C296.718,169.052,295.234,167.673,293.973,167.366z"/>
		<path style="fill-rule:evenodd;clip-rule:evenodd;fill:#B2954F;" d="M283.18,167.161c-2.84-0.161-5.044-0.389-6.611-0.684
			c0.36,3.054,0.54,4.581,0.54,4.581c0.558,0.144,1.098,0.224,1.619,0.239c0.137-1.186,1.048-2.4,2.732-3.641
			c-0.394,0.374-0.793,0.927-1.198,1.658C281.34,168.091,282.313,167.372,283.18,167.161L283.18,167.161z M287.812,202.595
			c-3.374-0.167-5.353-1.877-5.936-5.128c0,0-0.495-0.091-1.484-0.273c0,0,0.225,1.709,0.674,5.128
			c4.39,1.601,9.202,1.647,14.435,0.137c0,0,0.27-1.891,0.81-5.674c-0.945,0.319-1.417,0.479-1.417,0.479
			C294.297,201.198,291.936,202.975,287.812,202.595z"/>
		<path style="fill-rule:evenodd;clip-rule:evenodd;fill:#BFBFBF;" d="M300.38,161.488c0.427,1.55,0.641,2.324,0.641,2.324
			c-2.599,0.483-4.724,0.722-6.375,0.718c0.697-1.504,1.046-2.256,1.046-2.256C297.854,161.953,299.417,161.691,300.38,161.488z"/>
		<path style="fill-rule:evenodd;clip-rule:evenodd;fill:#BFBFBF;" d="M276.433,161.419c-0.427,1.549-0.641,2.324-0.641,2.324
			c2.599,0.483,4.724,0.722,6.375,0.718c-0.697-1.504-1.046-2.256-1.046-2.256C278.959,161.885,277.396,161.623,276.433,161.419z"/>
		<path style="fill-rule:evenodd;clip-rule:evenodd;fill:#E6E6E6;" d="M301.978,164.97c-4.626,0.638-9.188,0.924-13.685,0.858
			c-4.491-0.065-8.927-0.484-13.307-1.254l-0.174,1.034c4.421,0.777,8.911,1.199,13.469,1.266c4.552,0.066,9.164-0.223,13.835-0.867
			L301.978,164.97z"/>
		<path style="fill-rule:evenodd;clip-rule:evenodd;fill:#CEB26A;" d="M286.586,169.72c0.089,0.524,0.434,0.922,0.866,0.944
			c0.524,0.027,0.976-0.509,1.01-1.196c0.035-0.688-0.362-1.267-0.886-1.294c-0.368-0.019-0.7,0.24-0.878,0.634
			c-0.223,0.005-0.409,0.197-0.421,0.443C286.266,169.471,286.399,169.663,286.586,169.72L286.586,169.72z M287.97,171.741
			c-0.182-0.144-0.081-0.51,0.226-0.817c0.307-0.307,0.704-0.439,0.887-0.295c0.182,0.144,0.081,0.51-0.226,0.817
			C288.55,171.754,288.153,171.885,287.97,171.741L287.97,171.741z M291.029,169.537c-0.016,0.327-0.273,0.579-0.574,0.563
			c-0.301-0.015-0.531-0.293-0.515-0.619c0.016-0.327,0.273-0.579,0.574-0.563C290.815,168.933,291.046,169.21,291.029,169.537z"/>
		<path style="fill-rule:evenodd;clip-rule:evenodd;fill:#FFA778;" d="M281.37,179.044c-1.502-3.091-0.693-3.341,2.428-0.752
			C283.22,178.52,282.411,178.77,281.37,179.044z"/>
	</g>
	<path style="fill-rule:evenodd;clip-rule:evenodd;fill:#DE6742;" d="M220.954,124.605c-12.276,0.044-23.521-23.43-28.596-25.486
		c-0.526,4.299,0.624,32.634,0.624,32.634c5.702,4.378,11.826,5.618,17.038,5.847c1.363,0.059,3.037,0.216,4.344,0.098
		c2.821-0.256,4.649-0.832,7.202-2.356C220.771,129.989,220.954,124.605,220.954,124.605z"/>
	<path style="fill-rule:evenodd;clip-rule:evenodd;fill:#DB8455;" d="M131.091,186.636c0.111-2.303-0.862-3.794,0.583-3.648
		c1.061,0.107,4.237,1.251,5.998,2.818C135.787,185.238,133.561,185.777,131.091,186.636L131.091,186.636z M139.34,183.402
		c-0.783,1.763-1.226,3.576-1.226,3.576c0.114,1.257,2.765,4.978,5.193,6.605c2.967,1.988,5.925,1.845,7.527,2.653
		c2.342-0.465,1.682-3.088-1.138-6.017C146.714,190.144,143.622,187.604,139.34,183.402z"/>
	<path style="fill-rule:evenodd;clip-rule:evenodd;fill:#524949;" d="M113.28,205.905c24.349-0.369,36.523-0.554,36.523-0.554
		c-4.217-14.14-9.32-20.275-15.44-20.124C128.294,185.377,121.222,191.697,113.28,205.905z"/>
	<path style="fill-rule:evenodd;clip-rule:evenodd;fill:#423A3A;" d="M147.115,205.392l-31.844,0.483l7.693-11.115
		c1.486-0.963,5.229-1.479,9.143-1.606l-0.269,9.806l2.736-9.834l-2.467,0.029c3.486-0.113,7.106,0.083,9.387,0.548L147.115,205.392
		z"/>
	<polygon style="fill-rule:evenodd;clip-rule:evenodd;fill:#333333;" points="133.97,194.161 132.087,193.89 132.567,187.878 
		134.288,187.486 134.753,187.713 135.145,188.275 	"/>
	<path style="fill-rule:evenodd;clip-rule:evenodd;fill:#5BADD9;" d="M186.276,130.983c3.54-2.479,4.316-7.724,4.316-7.724
		c0.979-1.015,1.82-0.984,2.052-0.723c4.49,5.051,9.092,9.953,17.375,15.063c-10.319,6.606-12.823,10.691-12.823,10.691
		C191.245,137.983,186.639,135.586,186.276,130.983z"/>
	<path style="fill-rule:evenodd;clip-rule:evenodd;fill:#5BADD9;" d="M227.253,130.973c-2.285-2.479-0.323-7.714-0.323-7.714
		c-0.632-1.015-1.175-0.984-1.325-0.723c-2.899,5.051-5.895,10.05-11.243,15.161c6.662,6.606,11.007,9.224,11.007,9.224
		C229.212,136.613,227.019,135.576,227.253,130.973z"/>
	<path style="fill-rule:evenodd;clip-rule:evenodd;fill:#F29A6A;" d="M190.34,92.766c-1.672-4.989-2.508-7.484-2.508-7.484
		c3.045-3.072,4.627-7.803,5.982-12.384c3.968-5.895,8.459-7.004,12.239-5.136c8.64,2.588,13.574,2.404,14.802-0.551
		c4.678,1.747,4.84,3.504,4.84,3.504c1.58,4.677,2.325,4.902,2.968,7.262c4.502,6.476,5.397,4.128,2.014,12.041
		c-1.769,3.494-2.246,5.646-1.431,6.454c2.031,1.607,3.379,3.084,4.043,4.431c-1.388,3.001-2.151,5.283-2.289,6.847
		c21.322,20.103-11.939,30.203-31.365,12.094c-4.271-3.982-2.017-6.361-7.78-18.936C189.393,99.646,188.887,96.932,190.34,92.766z"
		/>
	<path style="fill-rule:evenodd;clip-rule:evenodd;fill:#E68054;" d="M194.391,73.664c0.578,9.509,1.543,14.808,2.896,15.897
		c4.459-4.665,6.808-8.138,7.046-10.419c-3.05-4.77-4.128-7.868-3.234-9.294C198.425,70.442,196.189,71.714,194.391,73.664z"/>
	<path style="fill-rule:evenodd;clip-rule:evenodd;fill:#E68054;" d="M190.722,90.27c0.265,2.407,2.318,9.024,7.674,26.805
		c7.008,6.115,14.666,10.158,22.008,10.37c-4.959-11.352-15.122-5.371-19.884-20.544c0.61-2.4,3.731-0.868,6.274,3.033
		c-1.3-8.76-4.185-9.417-6.939-11.035c-1.429-0.84-4.901-4.517-6.882-7.213C191.25,89.341,190.919,87.657,190.722,90.27z"/>
	<path style="fill-rule:evenodd;clip-rule:evenodd;fill:#E68054;" d="M228.257,102.029c-2.105,2.876-2.46,2.281-2.46,2.281
		s0.92,0.822,2.761,2.464c-0.324,0.872-3.389,4.155-3.248,5.38c0.12,1.047,2.25,0.763,1.991,1.905
		c-0.467,2.056-6.047,1.765-5.587,5.074c2.183,0.925,6.208,0.718,8.397-1.517c4.898,3.224,1.742,6.245-2.274,10.003
		c2.28-0.406,4.515-1.391,6.705-2.953c4.034-6.205,2.688-9.217-4.531-16.59c0,0,1.028-2.48,2.554-7.045
		c-1.809-3.872-3.572-3.368-4.028-4.81c-0.469-1.481,0.002-4.545,2.906-11.293c-2.282-1.601-1.686-1.769-5.781-2.714
		c-2.411,6.427-2.53,8.964-0.513,13.802C225.719,97.384,228.859,99.574,228.257,102.029z"/>
	<path style="fill-rule:evenodd;clip-rule:evenodd;fill:#BD0023;" d="M209.935,109.756c2.876-0.706,12.337-3.425,15.269,0.711
		c1.009,1.424,2.132,2.584,2.833,3.434c-0.271,0.162-2.394,1.607-2.652,1.739c-4.014,2.055-6.574,0.611-10.008-1.999
		C214.085,112.659,210.924,110.587,209.935,109.756z"/>
	<polygon style="fill-rule:evenodd;clip-rule:evenodd;fill:#FF6600;" points="259.349,109.912 221.355,112.275 219.53,112.27 
		219.904,114.95 259.444,112.492 263.839,111.136 	"/>
	<path style="fill-rule:evenodd;clip-rule:evenodd;fill:#E6B378;" d="M263.839,111.136c-2.993-0.816-4.49-1.223-4.49-1.223
		c-0.811,0.207-0.905,0.588-0.282,1.143c-0.551,0.74-0.425,1.219,0.377,1.437C262.374,111.588,263.839,111.136,263.839,111.136z"/>
	<path style="fill-rule:evenodd;clip-rule:evenodd;fill:#C74C00;" d="M259.444,112.492c-0.813-0.265-0.939-0.744-0.377-1.437
		c-26.141,1.737-39.211,2.606-39.211,2.606c0.089,0.913,0.097,1.343,0.027,1.291c2.576-0.16,4.724-0.45,7.047-0.595
		C248.405,113.021,259.444,112.492,259.444,112.492z"/>
	<path style="fill-rule:evenodd;clip-rule:evenodd;" d="M263.839,111.136c-1.171-0.319-1.757-0.479-1.757-0.479
		c-0.29,0.397-0.28,0.734,0.028,1.012C263.263,111.313,263.839,111.136,263.839,111.136z"/>
	<path style="fill-rule:evenodd;clip-rule:evenodd;fill:#CCCCCC;" d="M214.07,110.47c-0.466-1.148-0.666-1.65-1.476-2.904
		c8.888,1.88,13.218,2.301,15.736,0.128c-0.942,2.748-1.173,3.421-1.173,3.421C225.258,112.296,221.172,113.209,214.07,110.47z"/>
	<path style="fill-rule:evenodd;clip-rule:evenodd;fill:#B3B3B3;" d="M227.427,108.971c-2.206,1.27-6.586,1.847-14.561-0.826
		c1.075,1.937,0.903,1.628,0.903,1.628c2.682,1.498,9.607,2.408,12.783,1.151C227.135,109.377,227.427,108.971,227.427,108.971z"/>
	<path style="fill-rule:evenodd;clip-rule:evenodd;fill:#DE5539;" d="M222.228,106.059c2.299,0.995,2.47,0.63,3.831-0.314
		c0.637-0.874,1.81-2.249,2.199-3.715c-1.544,0.799-3.092,1.031-4.642,0.697c-3.236-2.228-5.159-2.024-6.227-1.312
		c0.623-1.903,1.508-2.939,2.653-3.107c-4.412,0.627-3.504,3.576-2.727,4.904C218.571,105.359,222.148,105.991,222.228,106.059z"/>
	<path style="fill-rule:evenodd;clip-rule:evenodd;fill:#DE6742;" d="M214.341,95.196c-7.656-0.49-11.485-0.735-11.485-0.735
		c-1.7-0.608-2.154-0.974-3.622-2.266c-1.703-1.831-1.394-1.015-1.665-1.933c12.697-11.646,8.356-9.199,19.76-8.474
		c3.556,5.908,2.255,13.174,2.578,13.936C215.89,93.707,214.035,93.531,214.341,95.196z"/>
	<path style="fill-rule:evenodd;clip-rule:evenodd;fill:#FFC7C7;" d="M202.856,94.461c3.404-3.329,5.694-5.251,11.608-3.934
		c1.587,3.122,1.074,4.011-0.132,6.35C210.948,98.609,207.375,97.545,202.856,94.461z"/>
	<path style="fill-rule:evenodd;clip-rule:evenodd;fill:#463B80;" d="M207.501,96.775c0.825,0.359,1.968,0.255,3.429-0.314
		c0.891-0.455,1.447-1.192,1.679-2.069c0.665-2.512-1.089-3.677-2.851-3.476C206.463,91.292,204.808,94.941,207.501,96.775z"/>
	<path style="fill-rule:evenodd;clip-rule:evenodd;fill:#F29A6A;" d="M214.455,89.203c-5.545-2.247-9.575,0.759-11.599,5.257
		c6.839-5.706,10.74-3.195,12.242-3.072C215.657,91.435,215.107,90.438,214.455,89.203z"/>
	<path style="fill-rule:evenodd;clip-rule:evenodd;" d="M211.222,94.134c-0.023,2.183-2.625,3.594-3.463,1.384
		c-0.528-1.393,0.662-2.786,1.802-2.966C210.398,92.419,211.233,93.09,211.222,94.134z"/>
	<path style="fill-rule:evenodd;clip-rule:evenodd;fill:#DE6742;" d="M203.509,94.034c-0.573,0.521-0.859,0.782-0.859,0.782
		c2.941,2.009,5.357,3.767,7.633,4.197c1.659,0.313,3.335-0.331,4.641-0.857c0,0,0.19-0.464,0.916-2.235
		C212.757,98.151,205.58,94.202,203.509,94.034z"/>
	<path style="fill-rule:evenodd;clip-rule:evenodd;fill:#520D0D;" d="M217.812,71.113c-1.336-7.665,0.133-13.778,1.975-16.805
		c6.17,3.737,10.415,7.659,12.734,11.765c-1.356,2.342-2.61,6.832-3.859,11.905c-0.736-0.919-1.757-3.861-2.968-7.262
		C224.211,68.353,220.988,69.508,217.812,71.113z"/>
	<path style="fill-rule:evenodd;clip-rule:evenodd;fill:#520D0D;" d="M216.83,72.951c3.242-5.387,5.835-11.854,5.544-19.553
		c-5.596-4.541-12.07-6.436-19.424-5.686c-7.084,1.306-17.884,3.099-21.441,8.132c1.282,2.171-2.124,4.79-2.808,5.883
		C194.317,63.319,215.905,73.234,216.83,72.951z"/>
	<path style="fill-rule:evenodd;clip-rule:evenodd;fill:#520D0D;" d="M181.966,61.371c-3.241,4.059-5.612,10.251-6.883,18.276
		c2.315,3.999,5.662,7.847,10.039,11.545c0,0,3.647,4.728,5.7,11.477c0,0,4.204-2.298,7.244-1.105
		c-1.741-3.378-5.085-8.537-5.938-12.593c9.053-4.775,0.969-8.12,2.859-15.968c2.117-4.672,9.669-5.115,16.26-3.735
		C202.677,63.136,190.205,60.965,181.966,61.371z"/>
	<path style="fill-rule:evenodd;clip-rule:evenodd;fill:#E6523E;" d="M186.707,90.939c3.218,3.559,5.101,6.285,5.651,8.18
		c1.47,5.191,1.363,8.188-4.567,6.252C173.135,101.701,177.108,88.825,186.707,90.939z"/>
	<path style="fill-rule:evenodd;clip-rule:evenodd;fill:#661212;" d="M219.352,46.964c2.236,0.043,4.008,0.568,5.315,1.575
		c0.036,6.269-2.577,14.406-7.837,24.411C220.591,58.931,221.431,50.269,219.352,46.964z"/>
	<path style="fill-rule:evenodd;clip-rule:evenodd;fill:#661212;" d="M208.712,62.209c3.478,2.394,5.91,5.435,7.296,9.123
		c1.249-7.897,0.705-14.145-1.632-18.743c-9.402-4.487-11.619-6.97-21.448-7.568c-6.48,4.084-9.813,6.929-11.419,10.824
		C190.283,55.811,198.878,58.697,208.712,62.209z"/>
	<path style="fill-rule:evenodd;clip-rule:evenodd;fill:#661212;" d="M171.453,75.412c6.462,1.557,14.005,0.487,22.361-2.513
		c3.277-3.632,6.038-5.971,8.283-7.019c-12.537-4.32-20.657-5.581-24.359-3.783C174.065,66.486,172.06,70.692,171.453,75.412z"/>
	<path style="fill-rule:evenodd;clip-rule:evenodd;fill:#FFFFFF;" d="M213.435,91.027c0.323,0.625,0.6,1.589,0.6,1.589
		c-0.696,0.244-2.66,0.177-3.962,1.349C211.229,92.56,212.205,91.658,213.435,91.027z"/>
	<path style="fill-rule:evenodd;clip-rule:evenodd;fill:#42190C;" d="M202.094,94.935c3.184-3.027,8.607-5.423,12.894-3.926
		l2.795,1.584c-4.819-1.612-10.42-1.848-14.577,2.104L202.094,94.935z"/>
	<path style="fill-rule:evenodd;clip-rule:evenodd;fill:#FFFFFF;" d="M207.472,94.581c-0.174,0.125-0.2,0.39-0.059,0.591
		c0.141,0.201,0.397,0.263,0.57,0.137c0.174-0.125,0.2-0.39,0.059-0.591C207.901,94.518,207.646,94.456,207.472,94.581z"/>
	<path style="fill-rule:evenodd;clip-rule:evenodd;fill:#DB3E29;" d="M179.71,96.602c5.32-0.666,9.449,1.189,12.387,5.564
		C189.963,94.517,185.834,92.662,179.71,96.602z"/>
	<path style="fill-rule:evenodd;clip-rule:evenodd;fill:#DB3E29;" d="M183.658,96.899c2.553,0.094,3.83,0.141,3.83,0.141
		c-2.133,1.473-2.009,3.554,0.373,6.242C185.213,102.593,183.812,100.466,183.658,96.899z"/>
	<path style="fill-rule:evenodd;clip-rule:evenodd;fill:#B02D15;" d="M223.04,104.538c-0.874-1.139-2.907-2.008-4.836-1.955
		C217.964,103.682,221.878,105.838,223.04,104.538z"/>
	<path style="fill-rule:evenodd;clip-rule:evenodd;fill:#FFCFB5;" d="M226.968,101.18c-0.702,0.57-1.633,0.849-2.794,0.836
		c-0.808-0.393-1.503-0.913-2.084-1.558C224.387,100.913,226.013,101.154,226.968,101.18z"/>
	<path style="fill-rule:evenodd;clip-rule:evenodd;fill:#FFC4B5;" d="M215.933,114.136c0.946,0.189,10.077,0.336,10.998,0.22
		c-0.087,0.162-0.093,0.442-0.08,0.669C223.085,117.447,218.728,116.311,215.933,114.136z"/>
	<path style="fill-rule:evenodd;clip-rule:evenodd;fill:#871D1D;" d="M198.357,47.459c10.111,3.127,7.504,5.795-7.822,8.004
		c7.459,1.573,13.31,3.286,17.553,5.138c-12.855-5.116-11.226-7.48,4.889-7.094C206.913,50.026,202.04,48.01,198.357,47.459z"/>
	<path style="fill-rule:evenodd;clip-rule:evenodd;fill:#871D1D;" d="M175.966,72.943c-2.163,0.583-2.32,1.06-0.471,1.429
		c4.182-0.011,8.558-0.398,13.13-1.163c-12.589,0.409-10.539-2.247,6.15-7.968c-4.061-1.626-8.092-2.251-12.092-1.877
		C188.923,64.089,186.684,67.281,175.966,72.943z"/>
	<path style="fill-rule:evenodd;clip-rule:evenodd;fill:#661212;" d="M214.429,71.376c-6.326-7.599-18.417-12.228-36.274-13.887
		c16.001-1.223,30.398,5.65,36.847,13.397L214.429,71.376z"/>
	<path style="fill-rule:evenodd;clip-rule:evenodd;fill:#661212;" d="M217.091,72.507c1.819-6.54,4.631-9.819,8.174-9.395
		c0.876,1.249,1.019,2.661,0.428,4.236c-0.949,0.628-1.8,0.924-2.553,0.89c1.291-1.164,1.733-2.397,1.325-3.699
		C221.673,65.38,219.302,67.888,217.091,72.507z"/>
	<path style="fill-rule:evenodd;clip-rule:evenodd;fill:#FFC7C7;" d="M230.797,91.188c2.057,1.935-0.181,5.993-1.959,6.124
		c-1.436,0.106-2.877-0.229-3.688-1.295c-0.542-0.713-0.859-2.178-0.494-2.488C225.683,92.657,226.218,91.268,230.797,91.188z"/>
	<path style="fill-rule:evenodd;clip-rule:evenodd;fill:#463B80;" d="M225.754,96.743c0.303,0.428,1.512,0.506,2.111,0.631
		c0.542,0.113,0.546,0.707,1.266,0.474c1.05-0.51,1.554-1.46,1.651-2.62c0.225-2.679-1.614-3.431-3.035-3.124
		C225.866,92.511,224.353,94.766,225.754,96.743z"/>
	<path style="fill-rule:evenodd;clip-rule:evenodd;fill:#F29A6A;" d="M230.301,90.079c-5.402-1.04-7.21,0.583-8.481,4.794
		c0.856-0.77,1.818-0.571,2.508-1.081c4.208-3.112,5.846-1.721,7.026-1.836C231.876,91.905,231.784,91.938,230.301,90.079z"/>
	<path style="fill-rule:evenodd;clip-rule:evenodd;" d="M229.53,95.119c-0.101,1.901-2.035,2.924-2.737,0.966
		c-0.457-1.272,0.443-2.49,1.538-2.558C229.078,93.481,229.576,94.248,229.53,95.119z"/>
	<path style="fill-rule:evenodd;clip-rule:evenodd;fill:#FFFFFF;" d="M230.375,92.394c0.195,0.523,0.388,0.905,0.439,1.573
		c-0.798-0.097-1.621-0.274-2.78,0.21C229.296,93.056,229.733,92.775,230.375,92.394z"/>
	<path style="fill-rule:evenodd;clip-rule:evenodd;fill:#FFFFFF;" d="M225.752,94.982c-0.167,0.103-0.201,0.332-0.076,0.513
		c0.125,0.181,0.361,0.244,0.528,0.142c0.167-0.103,0.201-0.332,0.076-0.513C226.155,94.943,225.918,94.88,225.752,94.982z"/>
	<path style="fill-rule:evenodd;clip-rule:evenodd;fill:#42190C;" d="M231.493,91.562c-2.783-1.036-5.459-0.096-6.988,2.362
		c3.091-1.796,6.532-1.888,9.23-0.777C233.088,92.831,231.667,91.74,231.493,91.562z"/>
	<path style="fill-rule:evenodd;clip-rule:evenodd;fill:#DE6742;" d="M231.074,99.243c-1.484-0.001-4.348-1.151-5.924-3.226
		c1.074,0.662,4.458,1.336,6.386-0.747C231.407,97.189,231.074,99.243,231.074,99.243z"/>
	<path style="fill-rule:evenodd;clip-rule:evenodd;fill:#DE6742;" d="M224.883,92.121c-0.23,1.422-0.141,2.721,0.266,3.896
		c-2.147-2.433-1.243-11.026,0.019-12.448c3.02-0.7,5.5-0.817,6.274,1.36c0,0-0.682,2.327-1.741,5.043
		C227.372,89.653,225.765,90.369,224.883,92.121z"/>
	<path style="fill-rule:evenodd;clip-rule:evenodd;fill:#E68054;" d="M228.007,127.349c2.725-1.317,4.608-4.745,4.006-4.826
		c-0.502-0.067-5.351-0.37-6.995,1.366c-1.216,1.284-0.729,2.076,0.66,3.834c0.085-0.045,1.074-1.817,2.204-2.462
		C228.63,124.833,230.238,124.928,228.007,127.349z"/>
	<path style="fill-rule:evenodd;clip-rule:evenodd;fill:#E6513A;" d="M228.641,106.893c-1.692-0.43-2.189,1.13-3.711,0.993
		c-4.476-0.403-10.54-2.244-14.996,1.445c6.29-0.858,9.981,1.733,13.219,1.482C226.618,110.543,228.45,109.008,228.641,106.893z"/>
	<path style="fill-rule:evenodd;clip-rule:evenodd;fill:#520D0D;" d="M202.486,85.712c2.118-1.655,5.139-3.629,8.277-3.782
		c2.57-0.126,5.307,1.243,6.951,2.701c1.549,1.374,1.651,0.15,0.766-1.628c-1.049-2.109-3.963-5.618-7.211-5.687
		C208.485,77.256,205.527,79.944,202.486,85.712z"/>
	<path style="fill-rule:evenodd;clip-rule:evenodd;fill:#520D0D;" d="M232.309,86.046c-0.757-1.243-1.009-1.821-1.976-1.943
		c-2.468-0.312-6.033,2.008-5.93,1.356c0.636-4.031,5.102-4.837,6.371-4.608C232.214,81.111,233.725,82.225,232.309,86.046z"/>
	<path style="fill-rule:evenodd;clip-rule:evenodd;fill:#542212;" d="M203.878,94.09c5.876,2.089,9.357,2.519,11.568,1.051
		c0.212-0.141,1.107,0.325,1.314,0.197C214.639,97.383,210.345,96.967,203.878,94.09z"/>
	<path style="fill-rule:evenodd;clip-rule:evenodd;fill:#542212;" d="M231.178,95.102c0.942,0.273,1.436,0.36,1.436,0.36
		c-1.577,1.5-4.813,1.991-7.464,0.555C228.177,96.937,230.707,96.362,231.178,95.102z"/>
	<path style="fill-rule:evenodd;clip-rule:evenodd;fill:#F29A6A;" d="M136.435,187.497c0.22,3.93-0.183,5.171-0.239,6.849
		c-0.139,4.194,3.8,3.092,4.028,1.241c-0.267-1.43-0.003-6.49,0.215-8.119c0.467-3.492-0.699-4.109-1.593-4.161
		C136.72,183.182,136.463,185.109,136.435,187.497z"/>
	<path style="fill-rule:evenodd;clip-rule:evenodd;fill:#DB8455;" d="M126.682,187.823c-4.288-0.472-4.701,0.112-5.061,5.309
		c0.217,2.042-0.237,4.215-0.672,5.611c1.494,1.268,3.121-0.181,3.493-1.057c0.882-2.076-0.471-7.041,2.206-8.14
		C127.281,189.286,127.491,188.471,126.682,187.823z"/>
	<path style="fill-rule:evenodd;clip-rule:evenodd;fill:#DB7C48;" d="M120.156,195.041c0.064,2.594-0.434,4.399-1.492,5.417
		c-0.54,0.199-1.106,0.221-1.697,0.066C117.323,199.117,117.913,194.514,120.156,195.041z"/>
	<path style="fill-rule:evenodd;clip-rule:evenodd;fill:#F29A6A;" d="M148.633,198.419c-1.383,1.079-1.695,1.108-2.794,0.282
		c-1.474-1.107-1.446-2.923-0.172-5.121c0.434-0.44,1.061-1.076,1.881-1.906c2.42,0.395,4.278,2.548,3.617,4.472
		C149.65,196.517,148.806,197.274,148.633,198.419z"/>
	<path style="fill-rule:evenodd;clip-rule:evenodd;fill:#F29A6A;" d="M126.757,187.17c0.516-2.303,0.998-3.306,1.992-3.856
		c1.667-0.923,3.72-0.416,5.018,0.893c-1.479,0.347-2.052,0.82-2.707,2.796c-0.48,5.831-1.102,8.502-2.808,9.249
		c-1.653,0.608-2.1,0.478-2.974-0.268C126.887,191.745,126.797,190.033,126.757,187.17z"/>
	<path style="fill-rule:evenodd;clip-rule:evenodd;fill:#FFA778;" d="M148.794,196.54c-0.33,1.219-0.495,1.828-0.495,1.828
		c-0.102-0.092-0.446-0.122-1.003-0.428c-0.259-0.142-0.721-0.337-0.912-0.666c-0.063-1.068,0.202-1.395,0.53-1.651
		C148.44,195.934,148.566,196.482,148.794,196.54z"/>
	<path style="fill-rule:evenodd;clip-rule:evenodd;fill:#661212;" d="M181.576,88.788c-4.507-2.197-6.276-5.784-7.432-9
		c9.256-0.182,14.275-0.182,17.181-1.761c0.143,0.96,0.215,1.439,0.215,1.439c-1.217,1.228-2.302,1.987-3.255,2.278
		c2.317-0.685,3.475-1.027,3.475-1.027c2.501,5.536-0.684,8.667-9.556,9.392C181.623,89.681,181.414,89.241,181.576,88.788z"/>
	<path style="fill-rule:evenodd;clip-rule:evenodd;fill:#871D1D;" d="M184.038,88.69c1.778-5.497,0.169-8.155-4.826-7.973
		c4.419-0.041,7.17-0.204,8.253-0.489c-2.897,6.478-2.556,8.813,1.022,7.007C187.514,88.323,186.031,88.808,184.038,88.69z"/>
	<path style="fill-rule:evenodd;clip-rule:evenodd;fill:#FA6857;" d="M229.69,116.877c-4.627,4.084-10.29,1.232-17.045-5.164
		c6.209,3.249,11.257,5.916,14.712,3.018C229.146,115.021,229.758,115.776,229.69,116.877z"/>
	<path style="fill-rule:evenodd;clip-rule:evenodd;fill:#DE6742;" d="M206.619,76.79c3.02-3.398,5.423-3.637,7.207-0.717
		C212.163,74.561,209.761,74.8,206.619,76.79z"/>
	<g>
		<rect x="195.596" y="265.431" style="fill-rule:evenodd;clip-rule:evenodd;fill:#181C19;" width="10.928" height="37.059"/>
		<path style="fill-rule:evenodd;clip-rule:evenodd;fill:#181C19;" d="M198.69,307.307c-0.944,8.749-1.03,14.798-1.03,14.798
			c-5.046,0.357-22.482,3.145-44.37,10.029c0,0,0.525-2.811-2.544-2.72c0,0,0.848-1.294,2.543-3.882c0,0,10.309-1.632,42.313-18.311
			C195.602,307.221,196.631,307.25,198.69,307.307z"/>
		<path style="fill-rule:evenodd;clip-rule:evenodd;fill:#181C19;" d="M207.049,307.699c0.518,8.668,0.566,14.709,0.566,14.709
			c13.226-0.383,30.059,7.84,39.089,12.365c0.45-1.71,3.486-6.381,0.387-8.168c0,0-21.475-8.006-38.344-19.26
			C208.746,307.345,208.181,307.463,207.049,307.699z"/>
		<rect x="194.308" y="294.134" style="fill-rule:evenodd;clip-rule:evenodd;fill:#252B26;" width="13.9" height="27.914"/>
		<path style="fill-rule:evenodd;clip-rule:evenodd;fill:#101210;" d="M220.987,340.672h2.604v5.802
			c-1.177,0.657-1.658,0.473-2.604,0V340.672z"/>
		<path style="fill-rule:evenodd;clip-rule:evenodd;fill:#181C19;" d="M213.224,336.762c-14.407-10.422-16.848-14.715-16.848-14.715
			c0.151-7.479,1.858-12.001,1.858-12.001c4.422-0.348,6.632-0.522,6.632-0.522c13.199,18.87,19.798,28.305,19.798,28.305
			c0.444,1.973,0.377,3.625-0.201,4.957c-1.233,1.148-3.169,0.479-5.117,0.026C218.385,339.352,215.852,338.663,213.224,336.762z"/>
		<path style="fill-rule:evenodd;clip-rule:evenodd;fill:#290000;" d="M136.525,332.029c0.931,0.124,17.154-2.626,17.743-0.2
			l0.19,8.876l1.266,5.786l-9.262,0.827l-3.604-1.928l-4.454,4.615l-3.01,1.19l-16.937,1.793l-6.083-1.535l-1.547-2.377l1.459-0.24
			l-0.833-2.933l2.232-1.8l12.762-3.724l0.63-1.001l2.155-0.653l0.12-0.924L136.525,332.029z"/>
		<path style="fill-rule:evenodd;clip-rule:evenodd;fill:#181C19;" d="M201.453,257.901c31.277,0,49.999-0.067,49.999,7.175
			s-18.722,8.425-49.999,8.425c-31.277,0-56.633-3.492-56.633-7.8C144.82,261.393,170.176,257.901,201.453,257.901z"/>
		<polygon style="fill-rule:evenodd;clip-rule:evenodd;fill:#751E04;" points="175.95,235.875 183.009,262.424 224.255,262.595 
			236.666,235.396 237.565,224.041 241.311,211.583 176.212,212.554 		"/>
		<path style="fill-rule:evenodd;clip-rule:evenodd;fill:#8F2808;" d="M180.35,231.706l7.044,29.429l-2.846,1.296l-30.074-0.44
			l3.992,20.705l-4.552,42.25l1.559,1.027l-0.678,8.272l-21.857,0.67l5.04-10.421l-7.208-53.841
			c-0.158-2.034-3.141-20.466-2.641-24.106c0.495-3.607,35.364-13.677,47.787-17.381
			C176.943,228.859,180.078,230.504,180.35,231.706z"/>
		<path style="fill-rule:evenodd;clip-rule:evenodd;fill:#290000;" d="M258.152,330.344c-1.306-4.077-5.035-1.676-7.912-0.397
			c-3.599,1.6-7.497-0.352-8.088,1.778l-0.22,0.503l0.15,6.557l0.527,0.991l-0.752,0.762v2.592c1.078,2.712,2.07,2.292,3.761,3.812
			l1.73-0.229c1.217,1.21,2.031,1.916,2.031,3.583c1.577,4.736,4.846,9.543,9.404,11.639l0.301,0.026
			c2.453,1.281,7.977,0.728,10.493,0.039c0.274-0.075,0.358-0.039,0.641-0.039l3.16-1.982l0.151-2.059h-0.903v-1.754l-3.762-4.498
			c-0.071-0.249-1.392-4.295-3.547-8.228C262.206,337.76,259.415,337.667,258.152,330.344z"/>
		<polygon style="fill-rule:evenodd;clip-rule:evenodd;fill:#822307;" points="158.014,286.898 144.879,257.556 151.995,260.108 
			153.712,258.513 187.394,261.134 181.806,236.527 136.215,250.505 129.738,247.938 139.69,324.465 147.031,324.345 
			151.896,324.645 		"/>
		<polygon style="fill-rule:evenodd;clip-rule:evenodd;fill:#8F2808;" points="140.233,265.238 137.364,269.541 147.23,293.78 		"/>
		<path style="fill-rule:evenodd;clip-rule:evenodd;fill:#8F2808;" d="M254.623,274.927l2.202,46.927l2.489,4.293l-0.202,6.143
			l-4.151-1.837l-12.521,5.027l-2.671-6.797l1.729-3.918l-13.077-43.671l1.018-18.314c-1.596-0.202-21.255-2.017-21.871-2.04
			c1.204-19.924,10.706-28.764,28.651-30.394l16.303,17.036l-0.101,12.855L254.623,274.927z"/>
		<path style="fill-rule:evenodd;clip-rule:evenodd;fill:#822307;" d="M207.182,260.024l0.773-3.038l11.041-17.508l6.471-0.836
			l13.942,14.31c3.767,0.793,6.569,0.933,10.53-1.73l-0.996,13.268l5.265,57.687l-10.957,4.038l-14.83-45.118L235.947,263
			l-0.423-3.191c-0.142-0.077-3.014,2.183-4.029,2.83c-1.24,0.79-1.673-1.211-1.008-2.162c1.674-2.395,3.786-7.035-3.625-2.329
			c-0.286,0.182-1.833-1.609-2.192-1.524C222.571,257.119,209.421,259.746,207.182,260.024z"/>
		<polygon style="fill-rule:evenodd;clip-rule:evenodd;fill:#8F2808;" points="238.989,287.2 240.981,267.298 242.119,299.314 		"/>
		<polygon style="fill-rule:evenodd;clip-rule:evenodd;fill:#822307;" points="195.595,219.135 193.115,243.288 199.68,244.55 
			200.857,249.155 201.347,244.87 201.879,219.411 		"/>
		<path style="fill-rule:evenodd;clip-rule:evenodd;" d="M156.985,262.027c28.6-2.382,52.751-2.131,72.454,0.754
			C210.824,264.631,186.672,264.379,156.985,262.027z"/>
		<path style="fill-rule:evenodd;clip-rule:evenodd;" d="M195.597,273.46c0,3.824,0,5.737,0,5.737c3.122-1.31,6.765-1.31,10.928,0
			c0,0,0-1.909,0-5.726C206.524,273.47,202.882,273.467,195.597,273.46z"/>
		<path style="fill-rule:evenodd;clip-rule:evenodd;fill:#6B1900;" d="M181.064,241.957c0,0-19.003,7.344-27.198,9.437
			c1.09,2.786,2.05,4.228,2.033,6.929c3.009,1.025,27.913-0.846,30.821-0.155c4.474,1.062,14.193,1.144,20.839-0.222
			c7.725-1.588,14.989,3.127,21.053,2.878c-0.133-0.49-0.182-4.932,4.254-6.02c0,0-15.809-7.864-22.073-5.69
			c0,0,3.004-5.115,7.208-14.854c0.021-0.018-10.048,5.59-12.613,15c-1.361,1.045-3.592,1.567-6.692,1.565
			c0,0-2.789-0.217-8.366-0.652c0,0-0.611-1.773-4.902-14.208c-0.243,1.658-1.083,3.621-2.527,5.385
			C181.897,241.052,182.056,241.691,181.064,241.957z"/>
		<path style="fill-rule:evenodd;clip-rule:evenodd;fill:#8F2808;" d="M144.395,250.56c6.959,2.885,10.023,6.852,9.706,9.685
			c0,0-4.63-3.533-14.403-8.38C142.83,250.995,144.395,250.56,144.395,250.56z"/>
		<path style="fill-rule:evenodd;clip-rule:evenodd;fill:#181C19;" d="M225.045,346.058l-0.029,0.001l-5.842-0.077h-0.005h-0.001
			c-1.151-0.015-2.084,2.324-2.084,5.225c0,2.901,0.933,5.264,2.084,5.279l5.871-0.031l0.004,0h0.001
			c1.092,0.014,1.977-2.301,1.977-5.172c0-2.835-0.863-5.152-1.937-5.222v-0.001l-0.011,0L225.045,346.058z"/>
		<path style="fill-rule:evenodd;clip-rule:evenodd;fill:#252B26;" d="M217.595,344.59c5.159-0.129,7.739-0.194,7.739-0.194
			c0.828,0.711,1.314,2.368,1.456,4.97c0,0-2.426,0.09-7.279,0.272C219.327,347.477,218.689,345.795,217.595,344.59z"/>
		<path style="fill-rule:evenodd;clip-rule:evenodd;fill:#282E2A;" d="M167.534,270.527c23.931,1.394,41.306,1.916,52.124,1.565
			C210.053,264.799,192.679,264.277,167.534,270.527z"/>
		<path style="fill-rule:evenodd;clip-rule:evenodd;fill:#6B1900;" d="M203.653,230.064c-0.177,8.483-2.261,12.659-2.261,12.659
			s0.088-6.305-0.379-13.826c0,0-2.239,0.566-6.691,2.629c0.006-0.004-0.308,1.125-0.324-2.629
			c0.358-0.386-5.628-0.756-17.959-1.108c0,0,0.006-0.521,0.018-1.564c0,0,20.402-0.213,61.207-0.64
			c0.322-0.196,0.334,0.403,0.036,1.796c0,0-5.854-0.125-17.562-0.375C219.739,227.006,215.707,228.069,203.653,230.064z"/>
		<path style="fill-rule:evenodd;clip-rule:evenodd;fill:#992B09;" d="M178.939,232.355c-7.087-0.421-15.71,1.188-25.869,4.826
			c6.95,0.261,10.425,0.391,10.425,0.391C172.808,235.687,177.956,233.948,178.939,232.355z"/>
		<path style="fill-rule:evenodd;clip-rule:evenodd;fill:#992B09;" d="M236.581,233.953c-23.019-1.138-1.544,5.135,3.565,7.696
			C243.055,239.764,241.009,235.546,236.581,233.953z"/>
		<polygon style="fill-rule:evenodd;clip-rule:evenodd;fill:#290000;" points="175.107,221.732 238.547,220.427 238.45,225.56 
			175.011,226.866 		"/>
		<path style="fill-rule:evenodd;clip-rule:evenodd;fill:#D16E1E;" d="M200.874,225.711c0.338-0.036,0.642,0.212,0.678,0.555
			c0.036,0.343-0.209,0.651-0.548,0.687l-6.528,0.727l-0.207-0.32c-0.743-1.149-1.13-2.311-1.161-3.488
			c-0.055-0.094-0.087-0.203-0.087-0.32c0-0.131,0.04-0.253,0.108-0.354c0.078-0.886,0.357-1.779,0.835-2.681l0.189-0.356l6,0.433
			c0.34,0.024,0.596,0.323,0.572,0.668c-0.024,0.344-0.319,0.604-0.659,0.579l-5.193-0.375c-0.225,0.489-0.376,0.976-0.455,1.459
			h4.047c0.341,0,0.618,0.28,0.618,0.626c0,0.346-0.277,0.626-0.618,0.626h-4.088c0.073,0.732,0.315,1.457,0.729,2.176
			L200.874,225.711z"/>
		<path style="fill-rule:evenodd;clip-rule:evenodd;fill:#3B0202;" d="M201.822,222.13c-0.053,2.55-0.08,3.826-0.08,3.826
			s3.245-0.328,16.169-0.464c3.496-1.92,3.475-2.443-0.235-4.038C217.676,221.455,214.537,221.854,201.822,222.13z"/>
		<path style="fill-rule:evenodd;clip-rule:evenodd;fill:#822307;" d="M186.768,220.772c1.802-0.13,2.703-0.196,2.703-0.196
			s-0.15,2.957-0.45,8.87c0,0-0.472-0.022-1.416-0.065C187.604,229.381,187.326,226.511,186.768,220.772z"/>
		<path style="fill-rule:evenodd;clip-rule:evenodd;fill:#822307;" d="M176.408,220.575c1.802-0.13,2.703-0.196,2.703-0.196
			s-0.15,2.957-0.45,8.87c0,0-0.472-0.022-1.416-0.065C177.245,229.184,176.966,226.314,176.408,220.575z"/>
		<path style="fill-rule:evenodd;clip-rule:evenodd;fill:#822307;" d="M211.809,220.555c1.802-0.13,2.703-0.196,2.703-0.196
			s-0.15,2.957-0.45,8.87c0,0-0.472-0.022-1.416-0.065C212.646,229.164,212.367,226.295,211.809,220.555z"/>
		<path style="fill-rule:evenodd;clip-rule:evenodd;fill:#822307;" d="M225.636,220.118c1.802-0.13,2.703-0.196,2.703-0.196
			s-0.15,2.957-0.45,8.87c0,0-0.472-0.022-1.416-0.065C226.473,228.727,226.194,225.857,225.636,220.118z"/>
		<path style="fill-rule:evenodd;clip-rule:evenodd;fill:#822307;" d="M237.114,219.929c1.82-0.13,2.65,0.218,2.65,0.218
			s-0.495,2.543-1.646,8.456c0,0-1.177,0.304-2.114,0.261C236.004,228.864,236.846,225.668,237.114,219.929z"/>
		<path style="fill-rule:evenodd;clip-rule:evenodd;fill:#421111;" d="M116.431,346.721c3.41-0.799,5.555-0.777,6.435,0.065
			C120.332,348.297,118.187,348.275,116.431,346.721z"/>
		<path style="fill-rule:evenodd;clip-rule:evenodd;fill:#421111;" d="M262.336,358.363c-2.115-2.827-3.776-4.202-4.984-4.126
			C258.344,357.042,260.005,358.417,262.336,358.363z"/>
	</g>
</g>
<g id="Table">
	<path style="fill-rule:evenodd;clip-rule:evenodd;fill:#6B6B6B;" d="M81.942,207.398h11.939l-1.015,136.103
		c-1.192,0.279-2.478,0.29-3.673,0.019L81.942,207.398z"/>
	<path style="fill-rule:evenodd;clip-rule:evenodd;fill:#6B6B6B;" d="M323.782,208.213h-11.939l1.015,136.103
		c1.192,0.279,2.478,0.29,3.673,0.019L323.782,208.213z"/>
	<path style="fill-rule:evenodd;clip-rule:evenodd;fill:#696969;" d="M56.917,213.665h11.939L67.84,371.738
		c-1.192,0.324-2.478,0.337-3.673,0.022L56.917,213.665z"/>
	<polygon style="fill-rule:evenodd;clip-rule:evenodd;fill:#4F4F4F;" points="68.856,213.665 56.917,213.665 64.806,360.478 
		61.717,240.041 67.509,237.314 68.347,292.834 	"/>
	<path style="fill-rule:evenodd;clip-rule:evenodd;fill:#A3A3A3;" d="M68.711,236.177c-1.57,1.351-2.355,2.027-2.355,2.027
		s0.511,46.304,1.484,133.534C67.84,371.738,68.115,324.759,68.711,236.177z"/>
	<path style="fill-rule:evenodd;clip-rule:evenodd;fill:#B0B0B0;" d="M92.255,234.96c-1.57,1.016-2.355,1.525-2.355,1.525
		s0.511,34.833,1.484,100.453C91.384,336.938,91.659,301.596,92.255,234.96z"/>
	<path style="fill-rule:evenodd;clip-rule:evenodd;fill:#696969;" d="M348.808,214.611h-11.939l1.015,158.074
		c1.192,0.324,2.478,0.337,3.673,0.022L348.808,214.611z"/>
	<path style="fill-rule:evenodd;clip-rule:evenodd;fill:#A3A3A3;" d="M337.013,237.123c1.57,1.351,2.355,2.027,2.355,2.027
		s-0.511,46.304-1.484,133.534C337.884,372.684,337.61,325.704,337.013,237.123z"/>
	<polygon style="fill-rule:evenodd;clip-rule:evenodd;fill:#4F4F4F;" points="336.869,214.611 348.808,214.611 340.918,361.424 
		344.007,240.987 338.216,238.26 337.377,293.78 	"/>
	<path style="fill-rule:evenodd;clip-rule:evenodd;fill:#B0B0B0;" d="M313.469,235.905c1.57,1.277,2.355,1.916,2.355,1.916
		s-0.24,20.814-1.214,103.291C314.611,341.112,314.066,319.659,313.469,235.905z"/>
	<polygon style="fill-rule:evenodd;clip-rule:evenodd;fill:#91302B;" points="37.21,208.222 369.243,203.188 367.675,219.881 
		37.21,219.881 	"/>
	<polygon style="fill-rule:evenodd;clip-rule:evenodd;fill:#731813;" points="41.832,214.463 39.708,211.137 39.708,219.881 
		233.145,216.811 364.612,217.202 366.35,207.419 361.137,209.963 362.682,206.05 	"/>
</g>
<g id="Things2">
	<polygon style="fill-rule:evenodd;clip-rule:evenodd;fill:#FF6600;" points="346.689,137.911 340.416,182.166 343.213,182.642 
		349.486,138.388 349.018,133.225 	"/>
	<path style="fill-rule:evenodd;clip-rule:evenodd;fill:#E6B378;" d="M349.018,133.225c-1.553,3.124-2.329,4.687-2.329,4.687
		c0.04,0.943,0.428,1.133,1.166,0.569c0.673,0.775,1.216,0.744,1.631-0.093C349.174,134.946,349.018,133.225,349.018,133.225z"/>
	<path style="fill-rule:evenodd;clip-rule:evenodd;fill:#C74C00;" d="M349.486,138.388c-0.469,0.839-1.012,0.87-1.631,0.093
		c-4.027,29.282-6.04,43.923-6.04,43.923c1.002,0.108,1.467,0.195,1.395,0.262C347.393,153.147,349.486,138.388,349.486,138.388z"/>
	<path style="fill-rule:evenodd;clip-rule:evenodd;" d="M349.018,133.225c-0.607,1.222-0.911,1.834-0.911,1.834
		c0.362,0.41,0.727,0.475,1.095,0.197C349.079,133.902,349.018,133.225,349.018,133.225z"/>
	<path style="fill-rule:evenodd;clip-rule:evenodd;fill:#800009;" d="M349.654,163.922c-5.415-2.619,3.017-2.97,4.085-2.594
		c0.693,9.692-0.534,15.367-3.68,17.027c-2.133-0.541-3.2-0.811-3.2-0.811c1.278-1.965,2.873-3.443,3.447-5.344
		C351.935,166.807,350.441,161.99,349.654,163.922z"/>
	<path style="fill-rule:evenodd;clip-rule:evenodd;fill:#D10000;" d="M349.159,159.685c-0.457,2.698-0.623,3.907-0.38,5.453
		c0.915-1.412,3.104-4.344,4.995-3.283C353.87,159.764,351.867,158.669,349.159,159.685z"/>
	<path style="fill-rule:evenodd;clip-rule:evenodd;fill:#1F1726;" d="M334.144,137.911l6.273,44.254l-2.797,0.476l-6.273-44.254
		C330.841,132.918,332.241,132.138,334.144,137.911z"/>
	<path style="fill-rule:evenodd;clip-rule:evenodd;fill:#C74C00;" d="M331.483,139.347c1.969,6.708,2.63,10.901,1.982,12.577
		C332.39,150.86,331.73,146.668,331.483,139.347z"/>
	<path style="fill-rule:evenodd;clip-rule:evenodd;fill:#402D52;" d="M331.347,138.388c-0.055-0.674,0.548-4.967,1.631,0.093
		c4.027,29.282,6.04,43.923,6.04,43.923c-1.002,0.108-1.467,0.195-1.395,0.262C333.439,153.147,331.347,138.388,331.347,138.388z"/>
	<rect x="329.815" y="157.682" style="fill-rule:evenodd;clip-rule:evenodd;fill:#B80000;" width="19.839" height="29.02"/>
	<path style="fill-rule:evenodd;clip-rule:evenodd;fill:#FF0000;" d="M331.177,159.302c4.75,0.003,8.43,0.165,11.041,0.487
		c0,0,0,8.459,0,25.378c-2.754,0.658-6.338,0.658-10.751,0C331.467,185.167,331.37,176.545,331.177,159.302z"/>
	<path style="fill-rule:evenodd;clip-rule:evenodd;fill:#DB0000;" d="M347.734,159.685L347.734,159.685
		c-1.08,0-0.519,24.847,0,24.847l0,0C348.253,184.532,348.813,159.685,347.734,159.685z"/>
	<ellipse style="fill-rule:evenodd;clip-rule:evenodd;fill:#FF4242;" cx="333.745" cy="171.88" rx="0.96" ry="11.838"/>
	<path style="fill-rule:evenodd;clip-rule:evenodd;fill:#C74C00;" d="M331.182,139.116c-0.15-0.016-0.26-0.153-0.244-0.306
		c0.016-0.152,0.151-0.263,0.302-0.247c0.594,0.065,1.131,0.063,1.609-0.007c0.468-0.068,0.879-0.201,1.233-0.398
		c0.132-0.074,0.299-0.025,0.372,0.11c0.073,0.134,0.024,0.303-0.109,0.377c-0.413,0.23-0.886,0.383-1.419,0.461
		C332.403,139.183,331.821,139.186,331.182,139.116z"/>
	<path style="fill-rule:evenodd;clip-rule:evenodd;fill:#C74C00;" d="M335.019,156.174c-0.136-0.003-0.244-0.117-0.241-0.254
		c0.003-0.138,0.115-0.247,0.251-0.244c0.512,0.012,0.974-0.012,1.383-0.072c0.401-0.058,0.748-0.151,1.041-0.277
		c0.125-0.053,0.27,0.006,0.322,0.133c0.053,0.127-0.006,0.273-0.131,0.327c-0.334,0.144-0.722,0.248-1.163,0.312
		C336.05,156.161,335.562,156.186,335.019,156.174z"/>
	<path style="fill-rule:evenodd;clip-rule:evenodd;fill:#5D4573;" d="M332.142,139.67c1.062,4.394,1.705,8.467,1.931,12.217
		C333.125,148.588,332.481,144.516,332.142,139.67z"/>
	<polygon style="fill-rule:evenodd;clip-rule:evenodd;fill:#B3B3B3;" points="311.779,203.91 312.833,195.117 311.815,187.823 
		369.058,188.134 368.886,191.552 369.221,193.963 366.774,194.892 369.492,195.328 369.324,196.324 369.278,197.53 354.516,197.67 
		369.244,198.407 369.022,204.221 	"/>
	<polygon style="fill-rule:evenodd;clip-rule:evenodd;fill:#999999;" points="345.574,192.149 316.165,190.742 367.273,190.25 
		367.288,188.124 312.717,187.758 313.861,195.186 312.605,203.844 367.273,203.261 367.114,200.026 316.96,200.448 342.077,198.76 
		318.629,198.69 326.657,196.087 356.464,195.525 363.061,194.048 317.119,194.4 345.018,193.204 	"/>
	<polygon style="fill-rule:evenodd;clip-rule:evenodd;fill:#4D4D4D;" points="353.285,197.176 350.185,197.316 348.278,198.055 
		346.791,202.992 350.645,202.963 353.848,198.949 	"/>
	<polygon style="fill-rule:evenodd;clip-rule:evenodd;fill:#00078A;" points="311.815,187.823 369.058,188.134 369.897,186.663 
		310.76,186.733 	"/>
	<polygon style="fill-rule:evenodd;clip-rule:evenodd;fill:#00056B;" points="310.931,204.119 310.562,202.38 370.784,201.947 
		370.613,204.226 	"/>
	<polygon style="fill-rule:evenodd;clip-rule:evenodd;fill:#C44E00;" points="331.904,192.359 328.565,192.499 327.771,197.281 
		333.017,197.211 	"/>
	<polygon style="fill-rule:evenodd;clip-rule:evenodd;fill:#AFD600;" points="351.378,197.914 348.278,198.055 347.483,201.993 
		352.331,202.274 	"/>
	<polygon style="fill-rule:evenodd;clip-rule:evenodd;fill:#D60072;" points="353.285,197.176 350.185,197.316 350.424,200.481 
		354.557,201.184 	"/>
	<path style="fill-rule:evenodd;clip-rule:evenodd;fill:#000333;" d="M310.338,187.205c0.198-0.464,0.783-0.699,1.307-0.524
		c0.525,0.175,0.79,0.693,0.592,1.157c-1.228,2.89-1.847,5.59-1.858,8.101c-0.01,2.486,0.573,4.795,1.751,6.927
		c0.246,0.445,0.037,0.982-0.465,1.199c-0.503,0.217-1.109,0.033-1.355-0.412c-1.317-2.383-1.969-4.955-1.957-7.715
		C308.365,193.204,309.026,190.292,310.338,187.205z"/>
</g>
<g id="Things1">
	<polygon style="fill-rule:evenodd;clip-rule:evenodd;fill:#2100A6;" points="19.054,190.786 112.293,191.373 111.328,207.098 
		20.02,208.859 	"/>
	<polygon style="fill-rule:evenodd;clip-rule:evenodd;fill:#C7AFAF;" points="108.879,194.351 50.833,193.745 50.771,206.482 
		108.107,205.699 	"/>
	<ellipse style="fill-rule:evenodd;clip-rule:evenodd;fill:#C7AFAF;" cx="33.784" cy="199.828" rx="7.244" ry="6.555"/>
	<path style="fill-rule:evenodd;clip-rule:evenodd;fill:#3D2323;" d="M33.784,203.855c2.451,0,4.45-1.809,4.45-4.027
		c0-2.218-1.999-4.027-4.45-4.027c-2.451,0-4.45,1.809-4.45,4.027C29.334,202.046,31.333,203.855,33.784,203.855z"/>
	<polygon style="fill-rule:evenodd;clip-rule:evenodd;fill:#703838;" points="55.492,195.048 53.754,195.341 53.754,204.439 
		55.299,204.244 	"/>
	<polygon style="fill-rule:evenodd;clip-rule:evenodd;fill:#703838;" points="105.876,195.234 104.428,195.234 104.138,204.723 
		105.393,204.919 	"/>
	<polygon style="fill-rule:evenodd;clip-rule:evenodd;fill:#968A8A;" points="57.23,195.291 102.839,195.486 102.306,196.955 
		57.229,195.585 	"/>
	<polygon style="fill-rule:evenodd;clip-rule:evenodd;fill:#968A8A;" points="56.988,202.97 101.148,203.802 101.149,204.096 
		57.037,204.292 	"/>
	<g>
		<path style="fill-rule:evenodd;clip-rule:evenodd;fill:#A38C8C;" d="M17.869,184.876c26.699-0.45,53.399-0.901,80.098-1.351
			l-1.272,2.487l1.798,5.068l-80.045,1.35l0.578-2.038l-0.727-1.358l0.674-2.26L17.869,184.876z"/>
		<path style="fill-rule:evenodd;clip-rule:evenodd;fill:#D1AFAF;" d="M97.437,189.798l-75.491-2.044
			c-0.093,1.812,7.446,4.227,7.446,6.135l54.463-4.459L97.437,189.798z"/>
		<path style="fill-rule:evenodd;clip-rule:evenodd;fill:#B09494;" d="M22.284,177.131c26.699-0.45,53.399-0.901,80.098-1.351
			l-1.272,2.487l1.798,5.068l-80.045,1.35l0.578-2.038l-0.727-1.358l0.673-2.26L22.284,177.131z"/>
		<polygon style="fill-rule:evenodd;clip-rule:evenodd;fill:#D9BDBD;" points="99.513,178.154 67.72,178.381 94.01,182.585 		"/>
		<polygon style="fill-rule:evenodd;clip-rule:evenodd;fill:#D9BDBD;" points="21.649,186.16 17.869,184.876 62.885,184.01 
			69.897,183.998 		"/>
		<path style="fill-rule:evenodd;clip-rule:evenodd;fill:#917171;" d="M47.59,179.719l7.062,0.043
			c0.382-0.007,0.764-0.013,1.146-0.019l12.534-0.289l7.566,1.76l8.629-0.146l-6.806-1.088l-10.001-1.599L47.59,179.719z"/>
		<path style="fill-rule:evenodd;clip-rule:evenodd;fill:#A38C8C;" d="M19.212,169.619c26.699-0.45,53.399-0.901,80.098-1.351
			l-1.272,2.487l1.798,5.069l-80.045,1.35l0.578-2.038l-0.727-1.358l0.674-2.26L19.212,169.619z"/>
		<path style="fill-rule:evenodd;clip-rule:evenodd;fill:#B09494;" d="M23.627,161.874c26.699-0.45,53.399-0.901,80.098-1.351
			l-1.272,2.487l1.798,5.068l-80.045,1.35l0.578-2.038l-0.727-1.358l0.674-2.26L23.627,161.874z"/>
		<polygon style="fill-rule:evenodd;clip-rule:evenodd;fill:#D9BDBD;" points="24.421,164.56 68.149,164.871 31.989,170.654 		"/>
		<polygon style="fill-rule:evenodd;clip-rule:evenodd;fill:#D9BDBD;" points="22.992,170.902 19.212,169.619 64.229,168.753 
			71.24,168.741 		"/>
		<path style="fill-rule:evenodd;clip-rule:evenodd;fill:#917171;" d="M95.837,166.711l-9.714,0.06
			c-0.525-0.009-1.051-0.018-1.577-0.027l-17.239-0.398l-10.407,2.421l-11.868-0.2l9.36-1.497l13.755-2.2L95.837,166.711z"/>
		<path style="fill-rule:evenodd;clip-rule:evenodd;fill:#7A6666;" d="M33.881,174.155c-6.628-0.652-9.942-0.978-9.942-0.978
			c45.753-1.631,68.63-2.446,68.63-2.446c-21.429,1.565-32.143,2.348-32.143,2.348c19.369,0.261,29.054,0.391,29.054,0.391
			c0.644,1.174,0.965,1.761,0.965,1.761c-34.427,0.326-51.641,0.489-51.641,0.489c15.508-0.717,23.263-1.076,23.263-1.076
			C43.276,174.318,33.881,174.155,33.881,174.155z"/>
		<path style="fill-rule:evenodd;clip-rule:evenodd;fill:#917171;" d="M29.109,183.151c-0.129-2.542-0.193-3.814-0.193-3.814
			c10.36-0.001,15.541-0.001,15.541-0.001c-2.638,0.75-3.958,1.125-3.958,1.125c2.22,0.13,3.33,0.196,3.33,0.196
			c-4.665,0.457-6.998,0.685-6.998,0.685c-1.834,1.076,0.241,1.859,0.241,1.859C33.759,183.331,29.109,183.151,29.109,183.151z"/>
		<path style="fill-rule:evenodd;clip-rule:evenodd;fill:#E8033C;" d="M27.32,179.338h8.977c-2.393,1.19-1.929,0.703-2.799,3.264
			l-8.64,0.111L27.32,179.338z"/>
		<path style="fill-rule:evenodd;clip-rule:evenodd;fill:#917171;" d="M78.788,188.76c-0.129-2.542-0.193-3.814-0.193-3.814
			c10.36-0.001,15.54-0.002,15.54-0.002c-2.638,0.75-3.957,1.125-3.957,1.125c2.22,0.13,3.33,0.196,3.33,0.196
			c-4.665,0.457-6.998,0.685-6.998,0.685c-1.834,1.076,0.241,1.859,0.241,1.859C83.437,188.939,78.788,188.76,78.788,188.76z"/>
		<path style="fill-rule:evenodd;clip-rule:evenodd;fill:#43B811;" d="M76.998,184.946h8.977c-2.392,1.19-1.929,0.703-2.799,3.264
			l-8.64,0.111L76.998,184.946z"/>
		<path style="fill-rule:evenodd;clip-rule:evenodd;fill:#917171;" d="M85.699,164.676c-0.102-2.024-0.154-3.036-0.154-3.036
			c8.248-0.001,12.372-0.001,12.372-0.001c-2.101,0.597-3.151,0.896-3.151,0.896c1.768,0.104,2.651,0.156,2.651,0.156
			c-3.714,0.363-5.571,0.545-5.571,0.545c-1.46,0.857,0.192,1.48,0.192,1.48C89.4,164.819,85.699,164.676,85.699,164.676z"/>
		<path style="fill-rule:evenodd;clip-rule:evenodd;fill:#DBA321;" d="M83.633,162.315h7.146c-1.905,0.947-1.535,0.56-2.228,2.599
			l-6.878,0.089L83.633,162.315z"/>
		<path style="fill-rule:evenodd;clip-rule:evenodd;fill:#DB216C;" d="M85.761,161.809h7.146c-1.905,0.947-1.535,0.56-2.228,2.599
			l-6.878,0.088L85.761,161.809z"/>
	</g>
	<g>
		<path style="fill-rule:evenodd;clip-rule:evenodd;fill:#25A827;" d="M63.591,179.05c7.465,0.065,11.197,0.098,11.197,0.098
			c0.193-4.435,0.998-8.576,2.413-12.424c1.687-7.547,2.105-13.678-4.247-14.87c0,0-2.059,0.033-6.177,0.098
			c-5.137,0.133-6.971,4.959-5.502,14.478C62.927,170.59,63.7,174.796,63.591,179.05z"/>
		<path style="fill-rule:evenodd;clip-rule:evenodd;fill:#169918;" d="M62.046,166.041c-1.558-9.793,1.049-14.506,7.819-14.138
			c-1.791,3.937-2.21,8.226-1.256,12.867c-0.294,8.643-0.294,12.833,0,12.569c-2.702,0-4.054,0-4.054,0
			C64.14,171.181,63.304,167.416,62.046,166.041z"/>
		<path style="fill-rule:evenodd;clip-rule:evenodd;fill:#169918;" d="M73.687,164.458c0.224-5.176-0.548-8.6-2.317-10.272
			c-0.708,13.239-1.062,19.859-1.062,19.859C72.561,167.653,73.687,164.458,73.687,164.458z"/>
		<path style="fill-rule:evenodd;clip-rule:evenodd;fill:#2BC22D;" d="M69.732,151.845c0.031-0.075,0.117-0.11,0.191-0.078
			c0.074,0.032,0.108,0.119,0.077,0.194c-0.868,2.061-1.417,4.104-1.644,6.13c-0.228,2.025-0.135,4.033,0.277,6.024
			c0.399,2.047,0.098,10.513,0.123,13.222c0.001,0.081-0.064,0.148-0.144,0.148c-0.08,0.001-0.146-0.065-0.146-0.146l-0.12-13.177
			c-0.416-2.018-0.509-4.052-0.279-6.104C68.297,156.003,68.852,153.932,69.732,151.845z"/>
		<path style="fill-rule:evenodd;clip-rule:evenodd;fill:#2BC22D;" d="M67.505,151.904c0.046-0.066,0.137-0.083,0.202-0.036
			c0.066,0.047,0.082,0.139,0.036,0.205c-1.097,1.587-1.898,3.309-2.405,5.165c-0.505,1.855-0.716,3.845-0.633,5.97
			c0.441,3.027,0.742,5.719,0.903,8.074c0.161,2.359,0.182,4.382,0.063,6.067c-0.006,0.081-0.075,0.143-0.156,0.137
			c-0.08-0.006-0.141-0.076-0.135-0.158c0.119-1.672,0.098-3.681-0.063-6.027c-0.16-2.348-0.461-5.034-0.902-8.056l-0.001-0.016
			c-0.086-2.159,0.128-4.183,0.643-6.07C65.573,155.27,66.389,153.518,67.505,151.904z"/>
		<path style="fill-rule:evenodd;clip-rule:evenodd;fill:#2BC22D;" d="M72.252,151.941c-0.042-0.069-0.021-0.16,0.047-0.203
			c0.068-0.043,0.158-0.021,0.2,0.048c1.183,1.932,1.969,3.976,2.359,6.132c0.39,2.155,0.384,4.421-0.018,6.797l-0.002,0.011
			c-0.756,3.02-1.342,5.581-1.759,7.682c-0.417,2.1-0.666,3.747-0.747,4.94c-0.005,0.081-0.075,0.143-0.155,0.137
			c-0.08-0.005-0.141-0.076-0.136-0.157c0.082-1.203,0.333-2.863,0.752-4.978c0.419-2.114,1.006-4.678,1.76-7.691
			c0.395-2.34,0.402-4.57,0.018-6.688C74.189,155.852,73.415,153.841,72.252,151.941z"/>
		<path style="fill-rule:evenodd;clip-rule:evenodd;fill:#E8D374;" d="M73.886,155.128c-0.13,0.491,0.247,0.49,0.247,0.49
			c-0.437,0.12,2.396-1.49,2.418-1.508C76.642,154.035,75.469,154.594,73.886,155.128z"/>
		<path style="fill-rule:evenodd;clip-rule:evenodd;fill:#E8D374;" d="M76.025,153.145c-0.13,0.491,0.247,0.49,0.247,0.49
			s1.177-0.732,3.017-1.759C79.688,151.7,78.134,152.433,76.025,153.145z"/>
		<path style="fill-rule:evenodd;clip-rule:evenodd;fill:#E8D374;" d="M65.893,155.011c0.19,0.717-0.361,0.715-0.361,0.715
			s0.659,0.182-2.026-1.318C62.923,154.152,62.815,153.972,65.893,155.011z"/>
		<path style="fill-rule:evenodd;clip-rule:evenodd;fill:#E8D374;" d="M63.757,153.081c-0.012,0.508-0.373,0.4-0.373,0.4
			s-0.384-0.393-1.863-1.904C61.186,151.294,61.932,151.795,63.757,153.081z"/>
		<path style="fill-rule:evenodd;clip-rule:evenodd;fill:#E8D374;" d="M61.548,157.191c0.234,0.45-0.135,0.533-0.135,0.533
			s-0.524-0.154-2.542-0.745C58.445,156.898,59.337,156.968,61.548,157.191z"/>
		<path style="fill-rule:evenodd;clip-rule:evenodd;fill:#E8D374;" d="M61.575,163.692c0.234,0.392-0.135,0.567-0.135,0.567
			s-0.524-0.022-2.542-0.108C58.471,164.175,59.363,164.022,61.575,163.692z"/>
		<path style="fill-rule:evenodd;clip-rule:evenodd;fill:#E8D374;" d="M63.109,169.369c0.234,0.315-0.135,0.611-0.135,0.611
			s-0.524,0.15-2.542,0.728C60.005,170.874,60.897,170.428,63.109,169.369z"/>
		<path style="fill-rule:evenodd;clip-rule:evenodd;fill:#E8D374;" d="M77.38,157.57c-0.13,0.476,0.247,0.518,0.247,0.518
			s1.177-0.597,3.017-1.415C81.043,156.542,79.489,157.098,77.38,157.57z"/>
		<path style="fill-rule:evenodd;clip-rule:evenodd;fill:#E8D374;" d="M77.287,162.325c-0.13,0.416,0.247,0.633,0.247,0.633
			s1.177-0.052,3.017-0.018C80.95,162.995,79.395,162.83,77.287,162.325z"/>
		<path style="fill-rule:evenodd;clip-rule:evenodd;fill:#E8D374;" d="M76.465,166.474c-0.13,0.374,0.247,0.713,0.247,0.713
			s1.177,0.333,3.017,0.969C80.129,168.341,78.574,167.668,76.465,166.474z"/>
		<path style="fill-rule:evenodd;clip-rule:evenodd;fill:#E8D374;" d="M75.241,170.99c-0.13,0.374,0.247,0.713,0.247,0.713
			s1.177,0.333,3.017,0.969C78.904,172.857,77.35,172.184,75.241,170.99z"/>
		<path style="fill-rule:evenodd;clip-rule:evenodd;fill:#E8D374;" d="M72.191,152.083c0.137,0.386,0.386,0.209,0.386,0.209
			s0.447-1.034,1.198-2.573C73.96,149.417,73.263,150.627,72.191,152.083z"/>
		<path style="fill-rule:evenodd;clip-rule:evenodd;fill:#E8D374;" d="M67.995,152.155c-0.137,0.386-0.386,0.209-0.386,0.209
			s-0.447-1.034-1.198-2.572C66.226,149.489,66.922,150.7,67.995,152.155z"/>
		<path style="fill-rule:evenodd;clip-rule:evenodd;fill:#E8D374;" d="M69.881,152.195c-0.268,0.198-0.435,0.032-0.435,0.032
			s-0.039-0.726-0.177-1.827C69.208,150.175,69.414,151.067,69.881,152.195z"/>
		<path style="fill-rule:evenodd;clip-rule:evenodd;fill:#E8D374;" d="M68.586,156.389c-0.268,0.198-0.435,0.032-0.435,0.032
			s-0.039-0.726-0.177-1.827C67.912,154.369,68.119,155.261,68.586,156.389z"/>
		<path style="fill-rule:evenodd;clip-rule:evenodd;fill:#E8D374;" d="M68.153,159.543c-0.091,0.323-0.323,0.297-0.323,0.297
			s-0.472-0.547-1.249-1.329C66.396,158.371,67.1,158.945,68.153,159.543z"/>
		<path style="fill-rule:evenodd;clip-rule:evenodd;fill:#E8D374;" d="M68.635,163.053c-0.091-0.323-0.323-0.297-0.323-0.297
			s-0.472,0.548-1.249,1.329C66.878,164.225,67.582,163.651,68.635,163.053z"/>
		<path style="fill-rule:evenodd;clip-rule:evenodd;fill:#E8D374;" d="M68.442,167.455c-0.091-0.374-0.323-0.48-0.323-0.48
			s-0.472,0.281-1.249,0.622C66.684,167.633,67.389,167.457,68.442,167.455z"/>
		<path style="fill-rule:evenodd;clip-rule:evenodd;fill:#E8D374;" d="M68.611,172.426c-0.091-0.374-0.323-0.48-0.323-0.48
			s-0.472,0.281-1.249,0.622C66.853,172.604,67.558,172.428,68.611,172.426z"/>
		<path style="fill-rule:evenodd;clip-rule:evenodd;fill:#E8D374;" d="M74.984,159.561c-0.13,0.416,0.247,0.633,0.247,0.633
			s1.177-0.052,3.017-0.017C78.648,160.23,77.093,160.066,74.984,159.561z"/>
		<path style="fill-rule:evenodd;clip-rule:evenodd;fill:#E8D374;" d="M74.72,163.931c-0.13,0.416,0.247,0.633,0.247,0.633
			s1.177-0.052,3.017-0.017C78.383,164.601,76.829,164.437,74.72,163.931z"/>
		<path style="fill-rule:evenodd;clip-rule:evenodd;fill:#E8D374;" d="M73.882,168.209c-0.13,0.38,0.247,0.701,0.247,0.701
			s1.177,0.271,3.017,0.811C77.545,169.885,75.99,169.294,73.882,168.209z"/>
		<path style="fill-rule:evenodd;clip-rule:evenodd;fill:#E8D374;" d="M72.723,173.007c-0.13,0.38,0.247,0.701,0.247,0.701
			s1.177,0.271,3.017,0.811C76.386,174.682,74.831,174.091,72.723,173.007z"/>
		<path style="fill-rule:evenodd;clip-rule:evenodd;fill:#E8D374;" d="M63.913,173.649c0.234,0.315-0.135,0.611-0.135,0.611
			s-0.524,0.15-2.542,0.728C60.809,175.154,61.701,174.707,63.913,173.649z"/>
		<path style="fill-rule:evenodd;clip-rule:evenodd;fill:#E8D374;" d="M68.606,175.453c-0.091-0.374-0.323-0.48-0.323-0.48
			s-0.472,0.281-1.249,0.622C66.848,175.63,67.553,175.455,68.606,175.453z"/>
		<path style="fill-rule:evenodd;clip-rule:evenodd;fill:#E8D374;" d="M74.203,176.324c-0.13,0.442,0.247,0.583,0.247,0.583
			s1.177-0.288,3.017-0.624C77.866,176.258,76.311,176.406,74.203,176.324z"/>
		<rect x="51.765" y="177.338" style="fill-rule:evenodd;clip-rule:evenodd;fill:#9C3A16;" width="33.591" height="8.316"/>
		<polygon style="fill-rule:evenodd;clip-rule:evenodd;fill:#822909;" points="56.205,185.506 81.688,185.506 78.214,207.742 
			59.584,207.742 		"/>
		<path style="fill-rule:evenodd;clip-rule:evenodd;fill:#701E00;" d="M81.665,185.654c-0.175,1.12-0.262,1.679-0.262,1.679
			c-10.785,1.548-18.408,2.956-22.869,4.223c1.93,9.457,2.896,14.185,2.896,14.185c11.861-0.028,17.522,0.216,16.983,0.73
			c-0.132,0.847-0.198,1.27-0.198,1.27c-12.42,0-18.63,0-18.63,0c-2.237-14.725-3.356-22.088-3.356-22.088
			C73.186,185.654,81.665,185.654,81.665,185.654z"/>
		<path style="fill-rule:evenodd;clip-rule:evenodd;fill:#701E00;" d="M85.356,177.338c-21.582,0.576-32.373,0.865-32.373,0.865
			c-0.161,4.272-0.241,6.408-0.241,6.408c19.466-0.065,29.199-0.098,29.199-0.098c-18.082-1.043-27.124-1.565-27.124-1.565
			c5.849-2.598,8.774-3.898,8.774-3.898C78.101,177.909,85.356,177.338,85.356,177.338z"/>
	</g>
</g>
<g id="Laptop">
	<g>
		<path style="fill-rule:evenodd;clip-rule:evenodd;fill:#2F7899;" d="M251.715,198.759c-0.562-8.331-0.844-12.497-0.844-12.497
			c0.252-0.259-0.408-1.552-0.114-1.696c4.039-1.989,5.532-3.87,5.532-3.87c-3.589-3.703-5.383-5.555-5.383-5.555
			c-50.258-0.59-76.124-0.59-77.595,0c-9.886,10.073-14.829,15.109-14.829,15.109c-0.999,6.275-1.499,9.413-1.499,9.413
			C219.462,199.068,251.04,198.766,251.715,198.759z"/>
		<path style="fill-rule:evenodd;clip-rule:evenodd;fill:#ED7557;" d="M230.785,193.301c1.736-3.087,2.667-5.235,2.648-6.491
			c2.664-0.604,4.543-0.864,5.637-0.778c4.441,0.33,7.522,0.866,9.243,1.611C238.599,193.695,232.805,195.597,230.785,193.301z"/>
		<path style="fill-rule:evenodd;clip-rule:evenodd;fill:#F08165;" d="M225.459,199.106c20.97,2.651,32.954,2.091,35.951-1.682
			c-0.625-3.139-2.631-7.239-10.538-11.161c-12.865,4.74-15.159,3.125-17.292,3.903
			C231.009,193.608,225.459,199.106,225.459,199.106z"/>
		<path style="fill-rule:evenodd;clip-rule:evenodd;fill:#D96346;" d="M225.154,201.475c4.907-5.298,8.022-8.742,9.344-10.332
			c1.3,1.21,2.468,1.784,3.504,1.722c1.271,2.004,2.422,2.967,3.453,2.888c1.373,1.547,2.693,2.473,3.961,2.777
			C236.246,202.308,229.492,203.289,225.154,201.475z"/>
		<path style="fill-rule:evenodd;clip-rule:evenodd;fill:#D96346;" d="M157.12,195.128c0.767,2.32,1.151,3.481,1.151,3.481
			c2.969,0.999,7.281,0.013,12.933-2.957c0.092-0.693,0.114-2.546,0.067-5.56c-1.303,0.883-2.148,2.344-4.559,2.235
			c-1.462-0.066-1.848,2.272-4.72,1.816C160.662,193.931,159.591,195.51,157.12,195.128z"/>
		<path style="fill-rule:evenodd;clip-rule:evenodd;fill:#D96346;" d="M178.539,199.457c-0.832-3.345-1.249-5.018-1.249-5.018
			s-1.035,0.118-3.106,0.354c0.498,3.373,0.747,5.06,0.747,5.06C177.337,199.59,178.539,199.457,178.539,199.457z"/>
		<path style="fill-rule:evenodd;clip-rule:evenodd;fill:#FF9100;" d="M161.328,195.882c0.282,0.667,0.423,1,0.423,1
			c-0.627,1.007-1.892,1.267-3.795,0.779c0,0-0.113-0.343-0.34-1.029C159.354,197.023,160.592,196.773,161.328,195.882z"/>
		<path style="fill-rule:evenodd;clip-rule:evenodd;fill:#524949;" d="M156.684,133.551l102.921-1.847
			c1.947-0.035,3.565,1.551,3.594,3.525l0.907,60.488c0.03,1.974-1.539,3.617-3.487,3.652l-102.921,1.847
			c-1.947,0.035-3.565-1.551-3.594-3.525l-0.908-60.488C153.168,135.229,154.737,133.586,156.684,133.551z"/>
		<path style="fill-rule:evenodd;clip-rule:evenodd;fill:#2E2828;" d="M156.072,135.177l104.196-1.87
			c0.785-0.014,1.437,0.625,1.449,1.421l0.923,61.543c0.012,0.795-0.62,1.458-1.405,1.472l-104.196,1.87
			c-0.785,0.014-1.437-0.625-1.449-1.421l-0.923-61.543C154.654,135.854,155.287,135.191,156.072,135.177z"/>
		<path style="fill-rule:evenodd;clip-rule:evenodd;fill:#262020;" d="M184.655,138.364c-0.128-0.01-0.225-0.133-0.215-0.273
			c0.009-0.141,0.122-0.246,0.25-0.236c13.056,1.052,22.101,3.163,27.173,6.251c2.714,1.652,4.306,3.592,4.784,5.807
			c0.477,2.216-0.166,4.685-1.926,7.393c-3.194,4.917-10.101,10.668-20.683,17.181c-0.113,0.069-0.255,0.025-0.318-0.098
			c-0.063-0.123-0.023-0.279,0.09-0.348c10.521-6.475,17.377-12.175,20.53-17.03c1.678-2.583,2.297-4.914,1.851-6.982
			c-0.446-2.069-1.963-3.898-4.555-5.477C206.621,141.5,197.641,139.411,184.655,138.364z"/>
		<path style="fill-rule:evenodd;clip-rule:evenodd;fill:#262020;" d="M171.866,188.984c14.058,2.622,9.775,5.4-12.849,8.332
			c38.843-1.113,58.264-1.67,58.264-1.67c-15.188-2.18-22.006-11.582-4.033-27.219c8.222-7.153,28.126-15.221,43.288-25.19
			c11.463-13.523-70.222-6.38-81.942-7.142C216.76,136.688,249.506,149.47,171.866,188.984z"/>
		<path style="fill-rule:evenodd;clip-rule:evenodd;fill:#262020;" d="M157.894,136.565l6.834-0.123
			c0.859-0.015,2.374,1.302,1.588,1.681c-9.89,4.771-7.8,6.986-8.208,12.753c-0.066,0.937-1.599-2.45-1.613-3.39l-0.138-9.184
			c-0.007-0.48,0.514,1.682,1.885,0.298C159.96,136.867,157.473,136.573,157.894,136.565z"/>
		<path style="fill-rule:evenodd;clip-rule:evenodd;fill:#262020;" d="M208.001,162.699c1.244-0.022,2.437,0.493,3.331,1.44
			c0.894,0.947,1.405,2.233,1.425,3.594c0.02,1.361-0.451,2.664-1.316,3.642l-0.001,0.002c-0.865,0.978-2.04,1.536-3.285,1.559
			c-1.244,0.022-2.437-0.493-3.331-1.44c-0.895-0.947-1.405-2.233-1.425-3.594c-0.02-1.361,0.451-2.664,1.316-3.642l0.001-0.002
			C205.581,163.28,206.756,162.721,208.001,162.699L208.001,162.699z M210.019,165.623c-0.534-0.565-1.244-0.872-1.987-0.859
			c-0.743,0.013-1.444,0.344-1.96,0.928l-0.001,0.002c-0.517,0.584-0.796,1.361-0.784,2.173c0.012,0.813,0.316,1.579,0.85,2.144
			c0.534,0.565,1.244,0.872,1.987,0.859c0.743-0.014,1.444-0.344,1.961-0.928c0.517-0.585,0.796-1.362,0.784-2.175
			C210.856,166.955,210.553,166.188,210.019,165.623z"/>
		<path style="fill-rule:evenodd;clip-rule:evenodd;fill:#0088FF;" d="M208.01,163.305c1.139-0.02,2.178,0.466,2.937,1.27
			c0.759,0.803,1.238,1.923,1.256,3.169c0.019,1.245-0.426,2.381-1.161,3.211l-0.001,0.002c-0.734,0.83-1.758,1.354-2.896,1.374
			c-1.139,0.02-2.178-0.466-2.937-1.27c-0.759-0.803-1.238-1.923-1.257-3.169c-0.019-1.244,0.426-2.38,1.161-3.211l0.001-0.002
			C205.849,163.849,206.872,163.325,208.01,163.305L208.01,163.305z M210.404,165.188c-0.615-0.651-1.458-1.046-2.381-1.029
			c-0.925,0.017-1.755,0.441-2.349,1.112l-0.002,0.002c-0.594,0.672-0.954,1.593-0.939,2.604c0.015,1.01,0.403,1.919,1.018,2.57
			c0.615,0.651,1.457,1.045,2.381,1.029c0.924-0.016,1.755-0.441,2.35-1.113c0.595-0.673,0.955-1.594,0.94-2.605
			C211.407,166.747,211.019,165.839,210.404,165.188z"/>
		<path style="fill-rule:evenodd;clip-rule:evenodd;fill:#262020;" d="M259.748,196.297l-6.834,0.123
			c-0.859,0.015-2.374-1.302-1.588-1.681c9.89-4.771,7.8-6.986,8.207-12.753c0.066-0.937,1.599,2.45,1.613,3.39l0.138,9.184
			C261.299,195.5,260.607,196.282,259.748,196.297z"/>
		<path style="fill-rule:evenodd;clip-rule:evenodd;fill:#473F3F;" d="M154.561,201.219l108.452-1.947
			c0.396-0.007,0.725,0.316,0.732,0.717l0.045,3.002c0.006,0.402-0.313,0.736-0.71,0.743l-108.451,1.947
			c-0.396,0.007-0.725-0.316-0.732-0.717l-0.045-3.002C153.846,201.56,154.165,201.226,154.561,201.219z"/>
		<path style="fill-rule:evenodd;clip-rule:evenodd;fill:#2E2828;" d="M154.49,201.624l108.605-1.949
			c0.05-0.001,0.091,0.04,0.092,0.09l0.046,3.069c0.001,0.05-0.039,0.092-0.089,0.093l-108.605,1.949
			c-0.05,0.001-0.091-0.04-0.092-0.09l-0.046-3.069C154.401,201.666,154.441,201.624,154.49,201.624z"/>
		<path style="fill-rule:evenodd;clip-rule:evenodd;fill:#262020;" d="M222.291,195.372c0.324,0.125,0.494,0.514,0.379,0.869
			c-0.115,0.354-0.471,0.54-0.795,0.415c-2.594-1.003-4.87-2.01-6.826-3.021c-1.974-1.02-3.633-2.049-4.975-3.085
			c-4.93-3.806-4.723-8.148-1.973-12.41c4.61-7.144,16.681-13.972,22.632-17.339c0.943-0.534,1.735-0.981,2.268-1.299
			c3.444-2.051,7.265-4.25,11.465-6.598c4.203-2.349,8.771-4.84,13.706-7.472c0.309-0.165,0.682-0.024,0.832,0.313
			c0.151,0.338,0.022,0.746-0.287,0.911c-4.945,2.638-9.507,5.125-13.686,7.461c-4.182,2.338-7.995,4.532-11.436,6.582
			c-0.618,0.368-1.382,0.8-2.292,1.315c-5.861,3.316-17.748,10.041-22.184,16.915c-2.328,3.607-2.501,7.284,1.676,10.508
			c1.283,0.991,2.879,1.98,4.788,2.966C217.51,193.398,219.746,194.388,222.291,195.372z"/>
		<path style="fill-rule:evenodd;clip-rule:evenodd;fill:#33A0FF;" d="M208.013,163.552c-0.092,0.002-0.166,0.077-0.179,0.171
			c-0.018,0.127,0.073,0.235,0.185,0.233c0.243-0.004,0.459,0.02,0.698,0.063c0.255,0.042,0.292-0.36,0.066-0.397
			C208.52,163.574,208.282,163.547,208.013,163.552L208.013,163.552z M207.576,163.994c-0.232,0.034-0.459,0.099-0.68,0.182
			c-0.232,0.089-0.351-0.292-0.124-0.38c0.235-0.093,0.504-0.166,0.751-0.202C207.745,163.549,207.833,163.942,207.576,163.994
			L207.576,163.994z M205.971,164.716c0.206-0.186-0.051-0.477-0.22-0.324c-0.204,0.16-0.403,0.367-0.572,0.57
			c-0.17,0.241,0.146,0.451,0.274,0.27C205.605,165.049,205.788,164.861,205.971,164.716L205.971,164.716z M204.875,166.188
			c0.102-0.233-0.227-0.416-0.335-0.169c-0.11,0.264-0.191,0.516-0.255,0.798c-0.064,0.22,0.276,0.381,0.359,0.094
			C204.701,166.656,204.775,166.427,204.875,166.188L204.875,166.188z M204.553,168.055c-0.004-0.245-0.373-0.264-0.368,0.023
			c0.015,0.276,0.056,0.57,0.123,0.837c0.092,0.286,0.426,0.111,0.356-0.105C204.605,168.553,204.568,168.319,204.553,168.055
			L204.553,168.055z M205.08,169.862c-0.095-0.2-0.442-0.057-0.312,0.215c0.139,0.242,0.294,0.461,0.473,0.669
			c0.141,0.186,0.433-0.06,0.277-0.266C205.351,170.271,205.217,170.1,205.08,169.862L205.08,169.862z M206.332,171.176
			c-0.245-0.129-0.374,0.251-0.18,0.352c0.233,0.142,0.453,0.249,0.706,0.342c0.238,0.082,0.341-0.306,0.115-0.383
			C206.745,171.405,206.542,171.304,206.332,171.176L206.332,171.176z M208.006,171.679c-0.258,0.005-0.235,0.408-0.005,0.404
			c0.254,0.005,0.521-0.016,0.771-0.067c0.238-0.048,0.173-0.445-0.067-0.397C208.482,171.666,208.233,171.684,208.006,171.679
			L208.006,171.679z M209.698,171.25c-0.216,0.123-0.046,0.481,0.17,0.358c0.226-0.128,0.451-0.286,0.648-0.462
			c0.192-0.173-0.049-0.48-0.232-0.314C210.1,170.994,209.906,171.131,209.698,171.25L209.698,171.25z M210.996,169.992
			c-0.039,0.056-0.041,0.154-0.005,0.217c0.08,0.127,0.223,0.133,0.311,0.009c0.15-0.242,0.262-0.476,0.37-0.742
			c0.096-0.219-0.225-0.419-0.34-0.157C211.237,169.559,211.132,169.774,210.996,169.992L210.996,169.992z M211.591,168.208
			c-0.033,0.238,0.328,0.328,0.367,0.039c0.023-0.289,0.026-0.557,0.001-0.846c-0.051-0.303-0.405-0.182-0.367,0.04
			C211.616,167.698,211.612,167.951,211.591,168.208L211.591,168.208z M211.337,166.329c0.072,0.224,0.43,0.123,0.341-0.156
			c-0.092-0.25-0.228-0.523-0.368-0.745c-0.183-0.242-0.433,0.058-0.305,0.227C211.133,165.871,211.248,166.09,211.337,166.329
			L211.337,166.329z M210.295,164.811c0.199,0.168,0.417-0.157,0.231-0.315c-0.215-0.189-0.408-0.317-0.647-0.464
			c-0.231-0.121-0.376,0.249-0.17,0.358l0.17-0.358l-0.169,0.359C209.922,164.517,210.106,164.645,210.295,164.811z"/>
	</g>
	<polygon style="fill-rule:evenodd;clip-rule:evenodd;fill:#262020;" points="159.942,199.096 170.052,199.022 170.052,201.939 
		159.942,202.013 	"/>
	<polygon style="fill-rule:evenodd;clip-rule:evenodd;fill:#262020;" points="249.191,197.426 259.301,197.351 259.301,200.268 
		249.191,200.342 	"/>
</g>
<defs>
	<filter id="Adobe_OpacityMaskFilter" filterUnits="userSpaceOnUse" x="0" y="0" width="400" height="400">
		<feFlood  style="flood-color:white;flood-opacity:1" result="back"/>
		<feBlend  in="SourceGraphic" in2="back" mode="normal"/>
	</filter>
</defs>
<mask maskUnits="userSpaceOnUse" x="0" y="0" width="400" height="400" id="Colour_mask_00000078736379460555325280000017319616274648895361_">
	<g style="filter:url(#Adobe_OpacityMaskFilter);">
		<defs>
			
				<filter id="Adobe_OpacityMaskFilter_00000164516274377089701220000013030724047599621305_" filterUnits="userSpaceOnUse" x="0" y="0" width="400" height="400">
				<feFlood  style="flood-color:white;flood-opacity:1" result="back"/>
				<feBlend  in="SourceGraphic" in2="back" mode="normal"/>
			</filter>
		</defs>
		
			<mask maskUnits="userSpaceOnUse" x="0" y="0" width="400" height="400" id="Colour_mask_00000078736379460555325280000017319616274648895361_">
			<g style="filter:url(#Adobe_OpacityMaskFilter_00000164516274377089701220000013030724047599621305_);">
			</g>
		</mask>
		
			<radialGradient id="Colour_mask_00000103235367203730930500000006012931882463149739_" cx="210.6668" cy="168.6668" r="199.9998" gradientUnits="userSpaceOnUse">
			<stop  offset="0" style="stop-color:#FFFFFF"/>
			<stop  offset="0.4469" style="stop-color:#CACACA"/>
			<stop  offset="0.8077" style="stop-color:#A7A7A7"/>
			<stop  offset="1" style="stop-color:#999999"/>
		</radialGradient>
		
			<rect id="Colour_mask_1_" style="mask:url(#Colour_mask_00000078736379460555325280000017319616274648895361_);fill-rule:evenodd;clip-rule:evenodd;fill:url(#Colour_mask_00000103235367203730930500000006012931882463149739_);" width="400" height="400"/>
	</g>
</mask>
<radialGradient id="Colour_mask_00000093878387658147102480000005721066127076704956_" cx="210.6668" cy="168.6668" r="199.9998" gradientUnits="userSpaceOnUse">
	<stop  offset="0" style="stop-color:#27AAE1"/>
	<stop  offset="0.1396" style="stop-color:#2F91BB"/>
	<stop  offset="0.4522" style="stop-color:#3F5C6C"/>
	<stop  offset="0.7098" style="stop-color:#4B3632"/>
	<stop  offset="0.8991" style="stop-color:#521E0E"/>
	<stop  offset="1" style="stop-color:#551500"/>
</radialGradient>
<rect id="Colour_mask" style="opacity:0.46;fill-rule:evenodd;clip-rule:evenodd;fill:url(#Colour_mask_00000093878387658147102480000005721066127076704956_);" width="400" height="400"/>
</svg>
